if (_typeface_js && _typeface_js.loadFace) _typeface_js.loadFace({"glyphs":{"¦":{"x_min":297,"x_max":399,"ha":694,"o":"m 399 277 l 399 -237 l 297 -237 l 297 277 l 399 277 m 399 971 l 399 457 l 297 457 l 297 971 l 399 971 "},"Ž":{"x_min":-28,"x_max":818,"ha":798,"o":"m -28 0 l -2 117 l 633 880 l 139 880 l 165 999 l 818 999 l 794 880 l 161 119 l 682 119 l 655 0 l -28 0 m 368 1335 l 441 1335 l 532 1185 l 684 1335 l 767 1335 l 586 1098 l 462 1098 l 368 1335 "},"Á":{"x_min":-102,"x_max":769,"ha":839,"o":"m 252 399 l 570 399 l 497 861 l 252 399 m -102 0 l 435 999 l 602 999 l 769 0 l 634 0 l 589 282 l 191 282 l 42 0 l -102 0 m 520 1098 l 438 1098 l 595 1335 l 724 1335 l 520 1098 "},"Î":{"x_min":5,"x_max":503,"ha":361,"o":"m 5 0 l 215 999 l 355 999 l 142 0 l 5 0 m 503 1098 l 429 1098 l 339 1247 l 186 1098 l 104 1098 l 285 1335 l 410 1335 l 503 1098 "},"e":{"x_min":24,"x_max":699,"ha":770,"o":"m 169 428 l 567 428 q 569 440 569 434 q 570 459 570 446 q 525 594 570 545 q 404 643 481 643 q 255 587 316 643 q 169 428 193 531 m 659 237 q 542 45 633 114 q 319 -24 452 -24 q 100 57 176 -24 q 24 292 24 139 q 130 622 24 494 q 404 750 237 750 q 619 670 539 750 q 699 455 699 590 q 696 399 699 430 q 688 329 693 368 l 149 329 q 149 325 149 327 q 147 283 147 295 q 195 133 147 185 q 336 82 244 82 q 463 123 409 82 q 535 237 516 165 l 659 237 "},"»":{"x_min":-14,"x_max":550,"ha":616,"o":"m 550 406 l 526 296 l 264 132 l 288 251 l 462 360 l 340 486 l 363 595 l 550 406 m 272 406 l 250 296 l -14 132 l 10 251 l 185 360 l 61 486 l 84 595 l 272 406 "},"∆":{"x_min":-4,"x_max":933,"ha":929,"o":"m 463 855 l 180 121 l 747 121 l 463 855 m 388 999 l 540 999 l 933 0 l -4 0 l 388 999 "},"ò":{"x_min":21,"x_max":721,"ha":798,"o":"m 408 643 q 304 617 350 643 q 224 540 258 592 q 169 417 189 488 q 149 278 149 346 q 194 135 149 185 q 324 86 240 86 q 516 189 442 86 q 591 455 591 292 q 544 595 591 547 q 408 643 497 643 m 21 287 q 133 620 21 490 q 421 750 245 750 q 640 667 560 750 q 721 441 721 584 q 608 109 721 239 q 320 -20 496 -20 q 99 60 178 -20 q 21 287 21 141 m 528 823 l 454 823 l 250 1060 l 386 1060 l 528 823 "},"^":{"x_min":285,"x_max":1103,"ha":1389,"o":"m 757 989 l 1103 611 l 980 611 l 694 896 l 407 611 l 285 611 l 630 989 l 757 989 "},"«":{"x_min":24,"x_max":587,"ha":616,"o":"m 301 320 l 323 429 l 587 595 l 561 474 l 387 365 l 512 239 l 488 132 l 301 320 m 24 320 l 46 429 l 310 595 l 284 474 l 110 365 l 234 239 l 210 132 l 24 320 "},"∙":{"x_min":104,"x_max":278,"ha":380,"o":"m 104 476 q 128 537 104 512 q 190 563 153 563 q 252 538 227 563 q 278 476 278 513 q 252 414 278 440 q 190 389 226 389 q 129 414 154 389 q 104 476 104 440 "},"í":{"x_min":-5,"x_max":425,"ha":321,"o":"m -5 0 l 147 726 l 270 726 l 115 0 l -5 0 m 221 823 l 139 823 l 296 1060 l 425 1060 l 221 823 "},"ˆ":{"x_min":215,"x_max":614,"ha":694,"o":"m 614 823 l 540 823 l 450 972 l 297 823 l 215 823 l 396 1060 l 521 1060 l 614 823 "},"µ":{"x_min":-77,"x_max":723,"ha":781,"o":"m 260 726 l 173 318 q 166 274 168 297 q 163 228 163 252 q 199 124 163 161 q 299 88 234 88 q 440 150 388 88 q 524 362 492 213 l 602 726 l 723 726 l 617 229 q 614 215 616 225 q 602 139 602 156 q 613 103 602 114 q 651 93 624 93 q 663 93 659 93 q 672 94 668 94 l 651 -1 q 617 -6 635 -5 q 578 -8 600 -8 q 512 10 535 -8 q 477 78 489 30 q 401 11 447 33 q 294 -10 355 -10 q 197 8 238 -10 q 120 68 155 27 l 46 -290 l -77 -290 l 138 726 l 260 726 "},"č":{"x_min":25,"x_max":701,"ha":772,"o":"m 540 269 l 661 269 q 537 55 631 135 q 313 -24 442 -24 q 97 57 170 -24 q 25 298 25 138 q 54 473 25 391 q 142 622 84 556 q 269 716 197 684 q 423 749 340 749 q 625 679 553 749 q 701 482 697 610 l 578 482 q 534 600 578 557 q 413 643 490 643 q 231 540 308 643 q 154 291 154 437 q 198 141 154 193 q 324 90 242 90 q 454 137 397 90 q 540 269 512 185 m 278 1060 l 351 1060 l 442 910 l 594 1060 l 677 1060 l 496 823 l 372 823 l 278 1060 "},"’":{"x_min":140,"x_max":344,"ha":349,"o":"m 140 679 l 152 742 q 208 781 188 753 q 238 856 229 808 l 172 856 l 202 999 l 344 999 l 312 856 q 250 735 295 782 q 140 679 205 689 "},"-":{"x_min":12,"x_max":372,"ha":433,"o":"m 12 313 l 37 423 l 372 423 l 346 313 l 12 313 "},"Q":{"x_min":53,"x_max":1006,"ha":1065,"o":"m 474 185 l 556 259 l 662 143 q 813 328 759 210 q 868 588 868 446 q 792 821 868 737 q 584 906 717 906 q 435 871 505 906 q 313 772 366 837 q 220 596 254 698 q 187 388 187 495 q 257 165 187 243 q 459 87 328 87 q 500 89 476 87 q 555 97 523 92 l 474 185 m 768 -134 l 641 3 q 548 -20 591 -12 q 469 -28 505 -28 q 161 81 269 -28 q 53 393 53 191 q 96 640 53 519 q 218 852 139 761 q 386 980 289 936 q 596 1025 484 1025 q 897 908 788 1025 q 1006 587 1006 792 q 937 283 1006 421 q 744 55 869 144 l 849 -59 l 768 -134 "},"M":{"x_min":3,"x_max":1168,"ha":1171,"o":"m 3 0 l 213 999 l 405 999 l 515 173 l 967 999 l 1168 999 l 955 0 l 830 0 l 993 762 q 1007 818 1000 794 q 1024 864 1015 843 l 547 0 l 419 0 l 301 876 l 301 861 q 299 826 301 844 q 294 788 297 809 l 131 0 l 3 0 "},"œ":{"x_min":21,"x_max":1229,"ha":1304,"o":"m 706 429 l 1103 429 q 1103 441 1103 433 q 1104 454 1104 450 q 1060 596 1104 545 q 937 646 1016 646 q 794 589 855 646 q 706 429 734 532 m 411 648 q 223 549 298 648 q 149 299 149 451 q 195 139 149 195 q 329 84 241 84 q 515 179 446 84 q 585 436 585 275 q 540 593 585 539 q 411 648 496 648 m 603 117 q 478 13 551 48 q 315 -22 405 -22 q 100 64 179 -22 q 21 298 21 150 q 131 623 21 497 q 416 750 242 750 q 571 717 510 750 q 668 618 633 685 q 792 717 724 685 q 943 750 859 750 q 1153 673 1078 750 q 1229 459 1229 597 q 1224 376 1229 439 q 1220 331 1222 347 l 692 330 q 689 302 690 316 q 688 275 688 289 q 735 134 688 184 q 866 84 782 84 q 995 125 941 84 q 1068 237 1049 166 l 1190 237 q 1073 45 1161 113 q 848 -22 984 -22 q 704 12 765 -22 q 603 117 643 46 "},"{":{"x_min":114,"x_max":588,"ha":694,"o":"m 588 900 l 560 900 q 450 869 478 900 q 423 745 423 839 l 423 581 q 392 426 423 472 q 286 359 362 380 q 393 294 363 341 q 423 139 423 248 l 423 -24 q 451 -148 423 -119 q 561 -178 479 -178 l 588 -178 l 588 -280 l 558 -280 q 443 -272 485 -280 q 373 -246 402 -264 q 321 -180 336 -223 q 306 -36 306 -137 l 306 128 q 269 270 306 229 q 143 311 232 311 q 128 310 138 311 q 114 310 118 310 l 114 412 q 129 411 119 412 q 144 410 139 410 q 269 451 232 410 q 306 592 306 492 l 306 758 q 321 901 306 858 q 373 966 336 943 q 447 993 404 985 q 562 1002 490 1002 l 588 1002 l 588 900 "},"¼":{"x_min":101,"x_max":1151,"ha":1192,"o":"m 805 197 l 985 197 l 1040 425 l 805 197 m 938 0 l 970 137 l 712 137 l 726 197 l 1075 528 l 1142 528 l 1063 197 l 1151 197 l 1136 137 l 1047 137 l 1015 0 l 938 0 m 249 -28 l 858 971 l 943 971 l 333 -28 l 249 -28 m 171 415 l 268 826 q 192 811 235 816 q 101 805 150 805 l 113 856 q 249 883 199 858 q 322 958 299 907 l 378 958 l 247 415 l 171 415 "},"#":{"x_min":60,"x_max":1009,"ha":1068,"o":"m 657 582 l 481 582 l 418 402 l 595 402 l 657 582 m 627 989 l 517 682 l 690 682 l 802 989 l 913 989 l 804 682 l 1009 682 l 974 582 l 768 582 l 705 404 l 924 404 l 889 304 l 671 304 l 561 -3 l 449 -3 l 558 304 l 383 304 l 273 -3 l 161 -3 l 269 304 l 60 304 l 95 404 l 306 404 l 368 582 l 144 582 l 179 682 l 404 682 l 514 989 l 627 989 "},"Ê":{"x_min":3,"x_max":818,"ha":817,"o":"m 3 0 l 213 999 l 818 999 l 791 876 l 319 876 l 255 574 l 712 574 l 687 456 l 230 456 l 158 122 l 668 122 l 641 0 l 3 0 m 731 1098 l 657 1098 l 567 1247 l 414 1098 l 332 1098 l 513 1335 l 638 1335 l 731 1098 "},")":{"x_min":-138,"x_max":325,"ha":467,"o":"m 205 999 q 295 732 265 862 q 325 475 325 602 q 235 83 325 271 q -43 -294 145 -105 l -138 -294 q 122 119 40 -82 q 204 549 204 321 q 185 769 204 657 q 130 999 167 881 l 205 999 "},"Å":{"x_min":-102,"x_max":769,"ha":839,"o":"m 452 1184 q 474 1129 452 1151 q 529 1107 496 1107 q 585 1129 563 1107 q 608 1184 608 1152 q 585 1239 608 1216 q 529 1262 562 1262 q 474 1239 496 1262 q 452 1184 452 1217 m 377 1184 q 421 1292 377 1248 q 531 1337 466 1337 q 639 1293 595 1337 q 683 1184 683 1249 q 639 1076 683 1120 q 531 1032 595 1032 q 422 1076 467 1032 q 377 1184 377 1121 m 252 399 l 570 399 l 497 861 l 252 399 m -102 0 l 435 999 l 602 999 l 769 0 l 634 0 l 589 282 l 191 282 l 42 0 l -102 0 "},"¸":{"x_min":43,"x_max":402,"ha":694,"o":"m 43 -286 l 68 -220 q 156 -242 122 -235 q 211 -250 190 -250 q 282 -234 260 -250 q 305 -183 305 -218 q 277 -141 305 -154 q 183 -129 250 -129 l 168 -129 l 212 0 l 265 0 l 241 -69 l 257 -69 q 365 -97 328 -69 q 402 -181 402 -126 q 358 -285 402 -249 q 232 -321 314 -321 q 153 -312 199 -321 q 43 -286 108 -303 "},"a":{"x_min":-11,"x_max":645,"ha":733,"o":"m 481 365 q 336 338 426 345 q 218 325 246 331 q 139 282 165 312 q 114 200 114 251 q 146 115 114 146 q 234 84 179 84 q 402 155 339 84 q 481 365 464 227 m 443 82 q 338 4 395 30 q 213 -22 281 -22 q 48 36 107 -22 q -11 200 -11 95 q 62 372 -11 316 q 312 439 136 428 q 321 439 315 439 q 519 549 519 452 q 486 618 519 596 q 381 641 453 641 q 241 614 280 641 q 186 516 202 588 l 65 516 q 162 687 83 630 q 381 745 241 745 q 576 700 508 745 q 645 575 645 656 q 642 549 645 566 q 631 489 639 531 l 565 181 q 559 151 561 165 q 557 121 557 136 q 570 91 557 101 q 607 81 582 81 q 622 82 615 81 q 638 85 630 83 l 619 0 q 585 -6 603 -4 q 542 -8 567 -8 q 468 14 493 -8 q 443 82 443 37 "},"=":{"x_min":172,"x_max":984,"ha":1157,"o":"m 984 326 l 984 232 l 172 232 l 172 326 l 984 326 m 984 596 l 984 501 l 172 501 l 172 596 l 984 596 "},"˚":{"x_min":278,"x_max":620,"ha":694,"o":"m 353 981 q 380 913 353 941 q 450 886 408 886 q 517 913 489 886 q 545 981 545 941 q 517 1050 545 1022 q 450 1079 489 1079 q 381 1050 409 1079 q 353 981 353 1022 m 278 983 q 327 1104 278 1055 q 450 1154 377 1154 q 570 1104 521 1154 q 620 983 620 1055 q 570 861 620 911 q 450 811 521 811 q 328 861 378 811 q 278 983 278 911 "},"ú":{"x_min":22,"x_max":723,"ha":766,"o":"m 723 726 l 570 0 l 459 0 l 481 109 q 355 18 421 48 q 215 -11 290 -11 q 70 27 119 -11 q 22 144 22 66 q 24 187 22 165 q 32 234 27 210 l 137 726 l 260 726 l 158 253 l 158 249 q 148 173 148 198 q 177 112 148 134 q 257 90 206 90 q 429 159 361 90 q 525 362 497 228 l 602 726 l 723 726 m 432 823 l 350 823 l 507 1060 l 636 1060 l 432 823 "},"¯":{"x_min":248,"x_max":634,"ha":694,"o":"m 248 886 l 268 982 l 634 982 l 614 886 l 248 886 "},"Z":{"x_min":-28,"x_max":818,"ha":798,"o":"m -28 0 l -2 117 l 633 880 l 139 880 l 165 999 l 818 999 l 794 880 l 161 119 l 682 119 l 655 0 l -28 0 "},"u":{"x_min":22,"x_max":723,"ha":766,"o":"m 723 726 l 570 0 l 459 0 l 481 109 q 355 18 421 48 q 215 -11 290 -11 q 70 27 119 -11 q 22 144 22 66 q 24 187 22 165 q 32 234 27 210 l 137 726 l 260 726 l 158 253 l 158 249 q 148 173 148 198 q 177 112 148 134 q 257 90 206 90 q 429 159 361 90 q 525 362 497 228 l 602 726 l 723 726 "},"k":{"x_min":-3,"x_max":734,"ha":686,"o":"m -3 0 l 206 999 l 327 999 l 199 401 l 561 726 l 734 726 l 418 454 l 586 0 l 455 0 l 320 369 l 165 234 l 113 0 l -3 0 "},"Ù":{"x_min":62,"x_max":954,"ha":957,"o":"m 212 999 l 344 999 l 206 347 q 198 300 201 322 q 196 261 196 278 q 250 140 196 183 q 404 97 305 97 q 588 152 522 97 q 680 330 655 208 l 821 999 l 954 999 l 810 323 q 759 163 788 220 q 682 66 730 107 q 554 -3 627 20 q 398 -28 481 -28 q 153 48 245 -28 q 62 251 62 124 q 66 303 62 270 q 81 385 71 335 l 212 999 m 696 1098 l 622 1098 l 418 1335 l 554 1335 l 696 1098 "},"¢":{"x_min":12,"x_max":690,"ha":762,"o":"m 406 643 q 220 539 297 641 q 143 291 143 437 q 168 170 143 217 q 242 102 193 122 l 406 643 m 528 269 l 651 269 q 526 56 619 134 q 302 -21 432 -21 q 277 -20 285 -21 q 262 -19 269 -20 l 216 -175 l 157 -175 l 207 -10 q 61 90 111 14 q 12 289 12 166 q 128 619 12 489 q 425 749 244 749 l 438 749 l 477 879 l 535 879 l 493 740 q 637 652 588 718 q 690 482 687 587 l 567 482 q 539 580 565 542 q 461 636 513 618 l 296 90 q 307 89 299 90 q 317 88 314 88 q 443 135 388 88 q 528 269 498 182 "},"Ş":{"x_min":7,"x_max":798,"ha":829,"o":"m 7 310 l 132 310 l 132 290 q 190 141 132 194 q 355 89 249 89 q 517 140 457 89 q 578 276 578 192 q 396 447 578 371 l 392 449 q 173 578 223 520 q 123 736 123 636 q 217 945 123 866 q 469 1025 312 1025 q 711 946 624 1025 q 798 727 798 868 l 798 713 l 668 713 l 668 717 q 616 864 668 814 q 461 914 564 914 q 310 867 366 914 q 254 744 254 821 q 418 585 254 656 q 461 567 445 573 q 664 440 612 500 q 716 291 716 381 q 615 57 716 141 q 334 -29 514 -27 l 320 -69 l 336 -69 q 444 -97 407 -69 q 481 -181 481 -126 q 436 -285 481 -249 q 311 -321 392 -321 q 230 -312 277 -321 q 121 -286 182 -303 l 146 -219 q 236 -242 201 -235 q 298 -250 271 -250 q 361 -233 340 -250 q 383 -183 383 -216 q 356 -141 383 -154 q 263 -129 330 -129 l 247 -129 l 281 -24 q 76 74 145 -3 q 7 283 7 152 l 7 310 "},"é":{"x_min":24,"x_max":699,"ha":770,"o":"m 169 428 l 567 428 q 569 440 569 434 q 570 459 570 446 q 525 594 570 545 q 404 643 481 643 q 255 587 316 643 q 169 428 193 531 m 659 237 q 542 45 633 114 q 319 -24 452 -24 q 100 57 176 -24 q 24 292 24 139 q 130 622 24 494 q 404 750 237 750 q 619 670 539 750 q 699 455 699 590 q 696 399 699 430 q 688 329 693 368 l 149 329 q 149 325 149 327 q 147 283 147 295 q 195 133 147 185 q 336 82 244 82 q 463 123 409 82 q 535 237 516 165 l 659 237 m 408 823 l 326 823 l 483 1060 l 612 1060 l 408 823 "},"B":{"x_min":3,"x_max":876,"ha":933,"o":"m 155 118 l 398 118 q 546 124 506 118 q 613 148 586 131 q 677 218 654 174 q 701 315 701 263 q 654 427 701 394 q 491 460 608 460 l 227 460 l 155 118 m 253 571 l 484 571 q 681 612 619 571 q 743 744 743 654 q 702 850 743 818 q 562 882 661 882 l 318 882 l 253 571 m 3 0 l 213 999 l 585 999 q 802 937 728 999 q 876 756 876 876 q 833 607 876 668 q 709 519 790 546 q 805 439 774 490 q 837 315 837 389 q 821 215 837 263 q 777 126 806 166 q 661 29 729 59 q 478 0 593 0 l 3 0 "},"…":{"x_min":62,"x_max":1171,"ha":1389,"o":"m 62 0 l 93 150 l 244 150 l 213 0 l 62 0 m 525 0 l 556 150 l 707 150 l 676 0 l 525 0 m 989 0 l 1020 150 l 1171 150 l 1140 0 l 989 0 "},"H":{"x_min":3,"x_max":970,"ha":973,"o":"m 3 0 l 213 999 l 347 999 l 260 589 l 751 589 l 837 999 l 970 999 l 757 0 l 625 0 l 725 472 l 234 472 l 133 0 l 3 0 "},"î":{"x_min":-5,"x_max":428,"ha":321,"o":"m -5 0 l 147 726 l 270 726 l 115 0 l -5 0 m 428 823 l 354 823 l 264 972 l 111 823 l 29 823 l 210 1060 l 335 1060 l 428 823 "},"−":{"x_min":172,"x_max":984,"ha":1157,"o":"m 984 463 l 984 367 l 172 367 l 172 463 l 984 463 "},"≠":{"x_min":172,"x_max":984,"ha":1157,"o":"m 889 754 l 763 595 l 984 595 l 984 503 l 702 503 l 563 325 l 984 325 l 984 233 l 503 233 l 334 18 l 263 75 l 388 233 l 172 233 l 172 325 l 448 325 l 586 503 l 172 503 l 172 595 l 647 595 l 818 809 l 889 754 "},"¥":{"x_min":-14,"x_max":826,"ha":793,"o":"m 230 0 l 308 379 l -14 379 l -1 441 l 291 441 l 255 533 l 18 533 l 31 596 l 231 596 l 96 943 l 223 943 l 391 499 l 688 943 l 826 943 l 585 596 l 800 596 l 786 533 l 542 533 l 480 441 l 767 441 l 754 379 l 431 379 l 355 0 l 230 0 "},"U":{"x_min":62,"x_max":954,"ha":957,"o":"m 212 999 l 344 999 l 206 347 q 198 300 201 322 q 196 261 196 278 q 250 140 196 183 q 404 97 305 97 q 588 152 522 97 q 680 330 655 208 l 821 999 l 954 999 l 810 323 q 759 163 788 220 q 682 66 730 107 q 554 -3 627 20 q 398 -28 481 -28 q 153 48 245 -28 q 62 251 62 124 q 66 303 62 270 q 81 385 71 335 l 212 999 "},"Ñ":{"x_min":3,"x_max":968,"ha":971,"o":"m 3 0 l 213 999 l 344 999 l 670 210 l 837 999 l 968 999 l 757 0 l 629 0 l 300 781 l 133 0 l 3 0 m 836 1290 q 783 1186 817 1219 q 695 1154 749 1154 q 675 1155 684 1154 q 657 1160 666 1156 l 597 1179 q 578 1183 588 1182 q 560 1185 569 1185 q 522 1171 537 1185 q 502 1131 508 1157 l 432 1131 q 482 1237 448 1202 q 568 1272 516 1272 q 591 1270 579 1272 q 615 1265 603 1268 l 675 1247 q 691 1242 683 1244 q 707 1241 699 1241 q 744 1252 730 1241 q 767 1290 758 1264 l 836 1290 "},"F":{"x_min":3,"x_max":788,"ha":749,"o":"m 3 0 l 212 999 l 788 999 l 762 878 l 321 878 l 256 574 l 682 574 l 656 452 l 230 452 l 133 0 l 3 0 "},"*":{"x_min":121,"x_max":667,"ha":694,"o":"m 394 644 l 276 473 l 181 536 l 315 702 l 121 755 l 156 863 l 343 799 l 343 999 l 445 999 l 445 799 l 630 863 l 667 755 l 472 702 l 605 537 l 514 468 l 394 644 "},"†":{"x_min":81,"x_max":668,"ha":694,"o":"m 176 -144 l 310 621 l 81 621 l 99 720 l 329 720 l 377 999 l 489 999 l 441 720 l 668 720 l 653 621 l 425 621 l 289 -144 l 176 -144 "},"∕":{"x_min":-232,"x_max":462,"ha":232,"o":"m -232 -28 l 377 971 l 462 971 l -147 -28 l -232 -28 "},"°":{"x_min":33,"x_max":423,"ha":457,"o":"m 359 793 q 321 885 359 847 q 229 923 283 923 q 135 885 174 923 q 97 793 97 847 q 135 699 97 738 q 229 661 174 661 q 321 699 283 661 q 359 793 359 738 m 228 987 q 365 929 308 987 q 423 790 423 872 q 366 653 423 710 q 227 597 309 597 q 89 653 145 597 q 33 790 33 709 q 90 929 33 872 q 228 987 147 987 "},"å":{"x_min":-11,"x_max":645,"ha":733,"o":"m 348 929 q 370 874 348 897 q 426 852 393 852 q 481 874 459 852 q 504 929 504 897 q 481 984 504 961 q 426 1007 458 1007 q 370 984 393 1007 q 348 929 348 962 m 273 929 q 317 1037 273 993 q 427 1082 362 1082 q 535 1038 492 1082 q 579 929 579 994 q 535 821 579 865 q 427 777 491 777 q 318 821 363 777 q 273 929 273 866 m 444 82 q 338 4 395 30 q 213 -22 281 -22 q 48 36 107 -22 q -11 200 -11 95 q 62 372 -11 316 q 312 439 136 428 q 321 439 315 439 q 519 549 519 452 q 486 618 519 596 q 381 641 453 641 q 241 614 280 641 q 186 516 202 588 l 65 516 q 162 687 83 630 q 381 745 241 745 q 576 700 508 745 q 645 575 645 656 q 642 549 645 566 q 631 489 639 531 l 565 181 q 559 151 561 165 q 557 121 557 136 q 570 91 557 101 q 607 81 582 81 q 622 82 615 81 q 638 85 630 83 l 620 0 q 585 -6 603 -4 q 542 -8 567 -8 q 469 14 494 -8 q 444 82 444 37 m 482 365 q 336 338 427 345 q 218 325 246 331 q 139 282 165 312 q 114 200 114 251 q 146 115 114 146 q 234 84 179 84 q 402 155 339 84 q 482 365 465 227 "},"0":{"x_min":32,"x_max":731,"ha":762,"o":"m 445 862 q 345 827 391 862 q 265 723 300 792 q 188 517 215 624 q 162 309 162 411 q 200 138 162 195 q 318 82 239 82 q 413 113 370 82 q 490 208 456 145 q 570 414 541 300 q 599 634 599 527 q 560 805 599 748 q 445 862 522 862 m 32 331 q 72 595 32 467 q 186 825 112 724 q 305 933 238 896 q 450 971 372 971 q 658 881 585 971 q 731 625 731 791 q 694 373 731 499 q 591 142 658 246 q 468 15 538 58 q 314 -28 397 -28 q 103 63 175 -28 q 32 331 32 155 "},"":{"x_min":77,"x_max":1021,"ha":1097,"o":"m 567 824 q 566 834 566 828 q 565 849 565 839 q 630 1005 565 934 q 790 1094 694 1077 q 791 1079 791 1087 q 791 1052 791 1070 q 721 893 791 963 q 583 823 651 823 l 578 823 q 573 824 576 823 q 567 824 570 824 m 1021 273 q 881 40 943 105 q 743 -24 820 -24 q 654 -1 709 -24 q 571 20 599 20 q 482 -1 540 20 q 396 -24 424 -24 q 309 5 353 -24 q 221 95 265 35 q 114 295 152 190 q 77 499 77 401 q 161 741 77 648 q 380 835 246 835 q 485 811 426 835 q 569 788 544 788 q 652 812 592 788 q 755 836 711 836 q 889 809 830 836 q 999 725 949 782 q 896 626 929 680 q 863 502 863 571 q 903 366 863 425 q 1021 273 944 307 "},"”":{"x_min":141,"x_max":570,"ha":574,"o":"m 366 679 l 378 742 q 434 781 414 753 q 464 856 455 808 l 398 856 l 428 999 l 570 999 l 538 856 q 476 735 521 782 q 366 679 431 689 m 141 679 l 153 742 q 209 781 189 753 q 239 856 230 808 l 173 856 l 203 999 l 345 999 l 313 856 q 251 735 296 782 q 141 679 206 689 "},"ö":{"x_min":21,"x_max":721,"ha":798,"o":"m 408 643 q 304 617 350 643 q 224 540 258 592 q 169 417 189 488 q 149 278 149 346 q 194 135 149 185 q 324 86 240 86 q 516 189 442 86 q 591 455 591 292 q 544 595 591 547 q 408 643 497 643 m 21 287 q 133 620 21 490 q 421 750 245 750 q 640 667 560 750 q 721 441 721 584 q 608 109 721 239 q 320 -20 496 -20 q 99 60 178 -20 q 21 287 21 141 m 486 864 l 516 1006 l 640 1006 l 610 864 l 486 864 m 263 864 l 293 1006 l 417 1006 l 387 864 l 263 864 "},"Õ":{"x_min":54,"x_max":1007,"ha":1065,"o":"m 586 908 q 438 873 508 908 q 316 775 368 839 q 223 601 257 701 q 190 398 190 500 q 264 171 190 253 q 471 89 339 89 q 614 120 546 89 q 732 209 681 151 q 833 389 797 285 q 869 606 869 492 q 792 826 869 745 q 586 908 716 908 m 54 396 q 97 641 54 520 q 220 854 141 761 q 388 981 291 937 q 600 1025 486 1025 q 898 910 789 1025 q 1007 596 1007 796 q 962 349 1007 470 q 836 136 917 229 q 670 14 767 56 q 460 -28 573 -28 q 162 85 271 -28 q 54 396 54 199 m 859 1290 q 806 1186 840 1219 q 718 1154 772 1154 q 698 1155 707 1154 q 680 1160 689 1156 l 620 1179 q 601 1183 611 1182 q 583 1185 592 1185 q 545 1171 560 1185 q 525 1131 531 1157 l 455 1131 q 505 1237 471 1202 q 591 1272 539 1272 q 614 1270 602 1272 q 638 1265 626 1268 l 698 1247 q 714 1242 706 1244 q 730 1241 722 1241 q 767 1252 753 1241 q 790 1290 781 1264 l 859 1290 "},"ć":{"x_min":25,"x_max":701,"ha":772,"o":"m 540 269 l 661 269 q 537 55 631 135 q 313 -24 442 -24 q 97 57 170 -24 q 25 298 25 138 q 54 473 25 391 q 142 622 84 556 q 269 716 197 684 q 423 749 340 749 q 625 679 553 749 q 701 482 697 610 l 578 482 q 534 600 578 557 q 413 643 490 643 q 231 540 308 643 q 154 291 154 437 q 198 141 154 193 q 324 90 242 90 q 454 137 397 90 q 540 269 512 185 m 424 823 l 342 823 l 499 1060 l 628 1060 l 424 823 "},"þ":{"x_min":-58,"x_max":741,"ha":819,"o":"m 447 641 q 259 534 336 641 q 181 273 181 428 q 226 132 181 182 q 352 82 272 82 q 538 187 462 82 q 614 451 614 293 q 569 590 614 540 q 447 641 525 641 m -58 -290 l 201 999 l 318 999 l 241 622 q 342 711 282 680 q 472 743 401 743 q 669 663 598 743 q 741 441 741 583 q 712 263 741 348 q 631 111 684 177 q 512 12 579 46 q 368 -22 444 -22 q 237 10 293 -22 q 139 108 180 42 l 56 -290 l -58 -290 "},"]":{"x_min":-78,"x_max":428,"ha":492,"o":"m 428 999 l 158 -275 l -78 -275 l -63 -181 l 61 -181 l 294 905 l 166 905 l 182 999 l 428 999 "},"8":{"x_min":26,"x_max":711,"ha":762,"o":"m 365 455 q 214 396 272 455 q 156 243 156 337 q 199 121 156 163 q 324 79 242 79 q 474 142 415 79 q 533 300 533 205 q 488 414 533 373 q 365 455 444 455 m 431 861 q 298 816 348 861 q 249 697 249 771 q 289 594 249 631 q 404 557 330 557 q 534 602 484 557 q 584 720 584 648 q 542 822 584 784 q 431 861 501 861 m 220 519 q 148 592 172 549 q 124 692 124 635 q 211 888 124 810 q 434 966 299 966 q 635 901 559 966 q 711 729 711 836 q 670 593 711 651 q 556 504 630 534 q 637 419 610 470 q 664 303 664 368 q 566 68 664 161 q 316 -25 468 -25 q 103 45 180 -25 q 26 236 26 115 q 75 406 26 335 q 220 519 124 478 "},"R":{"x_min":3,"x_max":866,"ha":920,"o":"m 252 550 l 494 550 q 672 599 610 550 q 734 742 734 648 q 690 847 734 812 q 556 882 646 882 l 321 882 l 252 550 m 3 0 l 217 999 l 559 999 q 686 988 642 999 q 764 955 729 978 q 839 870 813 923 q 866 751 866 817 q 820 582 866 651 q 687 480 774 512 q 745 426 728 458 q 762 333 762 393 q 761 304 762 314 q 760 285 761 294 l 755 185 q 753 150 753 165 q 752 123 752 135 q 758 59 752 80 q 780 26 765 38 l 780 0 l 622 0 q 612 36 615 18 q 609 73 609 54 q 610 105 609 86 q 613 151 611 125 l 621 263 q 623 278 622 270 q 624 300 624 286 q 587 405 624 378 q 441 433 551 433 l 227 433 l 132 0 l 3 0 "},"o":{"x_min":21,"x_max":721,"ha":798,"o":"m 408 643 q 304 617 350 643 q 224 540 258 592 q 169 417 189 488 q 149 278 149 346 q 194 135 149 185 q 324 86 240 86 q 516 189 442 86 q 591 455 591 292 q 544 595 591 547 q 408 643 497 643 m 21 287 q 133 620 21 490 q 421 750 245 750 q 640 667 560 750 q 721 441 721 584 q 608 109 721 239 q 320 -20 496 -20 q 99 60 178 -20 q 21 287 21 141 "},"5":{"x_min":29,"x_max":714.984375,"ha":762,"o":"m 29 272 l 148 272 l 148 257 q 190 129 148 173 q 312 85 232 85 q 485 158 420 85 q 550 356 550 232 q 506 493 550 447 q 377 540 463 540 q 262 513 310 540 q 188 437 214 487 l 73 437 l 223 943 l 714 943 l 692 834 l 304 834 l 230 585 q 308 630 263 615 q 410 645 352 645 q 604 567 532 645 q 677 357 677 489 q 572 80 677 189 q 308 -29 468 -29 q 103 45 177 -29 q 29 251 29 120 l 29 272 "},"õ":{"x_min":21,"x_max":721,"ha":798,"o":"m 408 643 q 304 617 350 643 q 224 540 258 592 q 169 417 189 488 q 149 278 149 346 q 194 135 149 185 q 324 86 240 86 q 516 189 442 86 q 591 455 591 292 q 544 595 591 547 q 408 643 497 643 m 21 287 q 133 620 21 490 q 421 750 245 750 q 640 667 560 750 q 721 441 721 584 q 608 109 721 239 q 320 -20 496 -20 q 99 60 178 -20 q 21 287 21 141 m 654 1015 q 601 911 635 944 q 513 879 567 879 q 493 880 502 879 q 475 885 484 881 l 415 904 q 396 908 406 907 q 378 910 387 910 q 340 896 355 910 q 320 856 326 882 l 250 856 q 300 962 266 927 q 386 997 334 997 q 409 995 397 997 q 433 990 421 993 l 493 972 q 509 967 501 969 q 525 966 517 966 q 562 977 548 966 q 585 1015 576 989 l 654 1015 "},",":{"x_min":-18,"x_max":209,"ha":380,"o":"m -18 -215 l -3 -148 q 63 -98 38 -134 q 100 0 89 -62 l 29 0 l 59 149 l 209 149 l 178 0 q 110 -147 158 -94 q -18 -215 61 -200 "},"d":{"x_min":21,"x_max":831,"ha":819,"o":"m 514 0 l 529 89 q 419 3 477 31 q 292 -24 361 -24 q 92 55 164 -24 q 21 280 21 135 q 49 457 21 372 q 128 606 77 542 q 252 707 181 671 q 400 743 323 743 q 534 708 476 743 q 632 605 592 674 l 712 999 l 831 999 l 624 0 l 514 0 m 586 444 q 539 587 586 535 q 410 639 492 639 q 223 533 300 639 q 147 271 147 428 q 191 128 147 180 q 313 76 236 76 q 508 180 430 76 q 586 444 586 285 "},"\"":{"x_min":61,"x_max":355,"ha":416,"o":"m 355 974 l 355 598 l 261 598 l 261 974 l 355 974 m 155 974 l 155 598 l 61 598 l 61 974 l 155 974 "},"˙":{"x_min":357,"x_max":520,"ha":694,"o":"m 357 860 l 388 1010 l 520 1010 l 488 860 l 357 860 "},"ê":{"x_min":24,"x_max":699,"ha":770,"o":"m 169 428 l 567 428 q 569 440 569 434 q 570 459 570 446 q 525 594 570 545 q 404 643 481 643 q 255 587 316 643 q 169 428 193 531 m 659 237 q 542 45 633 114 q 319 -24 452 -24 q 100 57 176 -24 q 24 292 24 139 q 130 622 24 494 q 404 750 237 750 q 619 670 539 750 q 699 455 699 590 q 696 399 699 430 q 688 329 693 368 l 149 329 q 149 325 149 327 q 147 283 147 295 q 195 133 147 185 q 336 82 244 82 q 463 123 409 82 q 535 237 516 165 l 659 237 m 615 823 l 541 823 l 451 972 l 298 823 l 216 823 l 397 1060 l 522 1060 l 615 823 "},"„":{"x_min":-33,"x_max":396,"ha":574,"o":"m 192 -176 l 204 -112 q 261 -73 240 -100 q 290 1 281 -45 l 224 1 l 254 143 l 396 143 l 364 1 q 302 -119 347 -72 q 192 -176 257 -165 m -33 -176 l -20 -112 q 36 -73 15 -100 q 65 1 57 -45 l 0 1 l 29 143 l 171 143 l 139 1 q 77 -119 122 -72 q -33 -176 32 -165 "},"Â":{"x_min":-102,"x_max":769,"ha":839,"o":"m 252 399 l 570 399 l 497 861 l 252 399 m -102 0 l 435 999 l 602 999 l 769 0 l 634 0 l 589 282 l 191 282 l 42 0 l -102 0 m 727 1098 l 653 1098 l 563 1247 l 410 1098 l 328 1098 l 509 1335 l 634 1335 l 727 1098 "},"Í":{"x_min":5,"x_max":500,"ha":361,"o":"m 5 0 l 215 999 l 355 999 l 142 0 l 5 0 m 296 1098 l 214 1098 l 371 1335 l 500 1335 l 296 1098 "},"´":{"x_min":325,"x_max":611,"ha":694,"o":"m 407 823 l 325 823 l 482 1060 l 611 1060 l 407 823 "},"Ú":{"x_min":62,"x_max":954,"ha":957,"o":"m 212 999 l 344 999 l 206 347 q 198 300 201 322 q 196 261 196 278 q 250 140 196 183 q 404 97 305 97 q 588 152 522 97 q 680 330 655 208 l 821 999 l 954 999 l 810 323 q 759 163 788 220 q 682 66 730 107 q 554 -3 627 20 q 398 -28 481 -28 q 153 48 245 -28 q 62 251 62 124 q 66 303 62 270 q 81 385 71 335 l 212 999 m 586 1098 l 504 1098 l 661 1335 l 790 1335 l 586 1098 "},"Ý":{"x_min":47,"x_max":817,"ha":715,"o":"m 186 0 l 271 413 l 47 999 l 185 999 l 357 536 l 665 999 l 817 999 l 400 393 l 320 0 l 186 0 m 472 1098 l 390 1098 l 547 1335 l 676 1335 l 472 1098 "},"Ω":{"x_min":53.109375,"x_max":1008.53125,"ha":1061,"o":"m 1008 121 l 1008 0 l 601 0 l 601 121 q 788 299 721 186 q 856 548 856 411 q 766 809 856 711 q 530 908 676 908 q 293 809 383 908 q 204 548 204 710 q 271 299 204 411 q 460 121 339 186 l 460 0 l 53 0 l 53 121 l 269 121 q 113 316 162 215 q 64 542 64 417 q 193 891 64 757 q 530 1025 323 1025 q 866 891 735 1025 q 997 548 997 758 q 948 316 997 417 q 791 121 900 216 l 1008 121 "},"Ö":{"x_min":54,"x_max":1007,"ha":1065,"o":"m 586 908 q 438 873 508 908 q 316 775 368 839 q 223 601 257 701 q 190 398 190 500 q 264 171 190 253 q 471 89 339 89 q 614 120 546 89 q 732 209 681 151 q 833 389 797 285 q 869 606 869 492 q 792 826 869 745 q 586 908 716 908 m 54 396 q 97 641 54 520 q 220 854 141 761 q 388 981 291 937 q 600 1025 486 1025 q 898 910 789 1025 q 1007 596 1007 796 q 962 349 1007 470 q 836 136 917 229 q 670 14 767 56 q 460 -28 573 -28 q 162 85 271 -28 q 54 396 54 199 m 691 1139 l 721 1281 l 845 1281 l 815 1139 l 691 1139 m 468 1139 l 498 1281 l 622 1281 l 592 1139 l 468 1139 "},"z":{"x_min":-58,"x_max":624,"ha":619,"o":"m -58 0 l -36 95 l 434 619 l 54 619 l 75 726 l 624 726 l 602 637 l 123 109 l 534 109 l 511 0 l -58 0 "},"™":{"x_min":164,"x_max":952,"ha":1157,"o":"m 652 989 l 754 727 l 850 989 l 952 989 l 952 624 l 886 624 l 886 925 l 773 624 l 735 624 l 617 925 l 617 624 l 551 624 l 551 989 l 652 989 m 471 989 l 471 935 l 354 935 l 354 624 l 281 624 l 281 935 l 164 935 l 164 989 l 471 989 "},"ã":{"x_min":-11,"x_max":650,"ha":733,"o":"m 481 365 q 336 338 426 345 q 218 325 246 331 q 139 282 165 312 q 114 200 114 251 q 146 115 114 146 q 234 84 179 84 q 402 155 339 84 q 481 365 464 227 m 443 82 q 338 4 395 30 q 213 -22 281 -22 q 48 36 107 -22 q -11 200 -11 95 q 62 372 -11 316 q 312 439 136 428 q 321 439 315 439 q 519 549 519 452 q 486 618 519 596 q 381 641 453 641 q 241 614 280 641 q 186 516 202 588 l 65 516 q 162 687 83 630 q 381 745 241 745 q 576 700 508 745 q 645 575 645 656 q 642 549 645 566 q 631 489 639 531 l 565 181 q 559 151 561 165 q 557 121 557 136 q 570 91 557 101 q 607 81 582 81 q 622 82 615 81 q 638 85 630 83 l 619 0 q 585 -6 603 -4 q 542 -8 567 -8 q 468 14 493 -8 q 443 82 443 37 m 650 1015 q 597 911 631 944 q 509 879 563 879 q 489 880 498 879 q 471 885 480 881 l 411 904 q 392 908 402 907 q 374 910 383 910 q 336 896 351 910 q 316 856 322 882 l 246 856 q 296 962 262 927 q 382 997 330 997 q 405 995 393 997 q 429 990 417 993 l 489 972 q 505 967 497 969 q 521 966 513 966 q 558 977 544 966 q 581 1015 572 989 l 650 1015 "},"æ":{"x_min":-11,"x_max":1128,"ha":1202,"o":"m 616 432 l 1002 432 l 1002 457 q 962 595 1002 548 q 844 643 922 643 q 695 584 759 643 q 616 432 632 525 m 491 373 q 320 336 421 344 q 198 321 219 328 q 134 275 154 305 q 114 199 114 246 q 147 114 114 145 q 240 84 181 84 q 409 162 341 84 q 491 373 477 240 m 497 146 q 366 19 436 61 q 213 -22 296 -22 q 49 36 109 -22 q -11 196 -11 95 q 62 372 -11 317 q 328 442 135 427 q 345 443 335 442 q 526 552 526 457 q 486 619 526 596 q 372 643 446 643 q 241 615 281 643 q 186 518 202 588 l 65 518 q 162 689 84 631 q 375 747 240 747 q 523 724 463 747 q 619 655 583 701 q 732 724 672 701 q 865 747 793 747 q 1055 664 982 747 q 1128 446 1128 581 q 1125 405 1128 429 q 1118 335 1123 381 l 594 335 q 594 330 594 333 q 591 289 591 301 q 638 137 591 190 q 768 84 684 84 q 898 125 843 84 q 970 237 952 166 l 1092 237 q 976 46 1064 115 q 758 -22 887 -22 q 589 21 656 -22 q 497 146 521 64 "},"É":{"x_min":3,"x_max":818,"ha":817,"o":"m 3 0 l 213 999 l 818 999 l 791 876 l 319 876 l 255 574 l 712 574 l 687 456 l 230 456 l 158 122 l 668 122 l 641 0 l 3 0 m 524 1098 l 442 1098 l 599 1335 l 728 1335 l 524 1098 "},"~":{"x_min":121,"x_max":1038,"ha":1157,"o":"m 1038 417 q 903 344 967 367 q 774 321 838 321 q 600 360 711 321 q 577 369 585 366 l 567 372 q 382 414 447 414 q 263 388 325 414 q 121 307 201 363 l 121 412 q 258 485 192 461 q 383 510 323 510 q 469 500 425 510 q 580 467 514 491 q 612 455 591 464 q 775 417 720 417 q 897 442 835 417 q 1038 523 959 467 l 1038 417 "},"³":{"x_min":12,"x_max":470,"ha":503,"o":"m 15 567 l 99 566 q 96 545 97 556 q 95 526 95 535 q 123 453 95 478 q 206 428 151 428 q 310 463 271 428 q 349 559 349 499 q 317 623 349 601 q 228 646 286 646 l 205 646 l 219 707 q 231 706 225 706 q 248 706 236 706 q 351 732 315 706 q 387 808 387 759 q 359 872 387 848 q 283 896 331 896 q 196 867 228 896 q 155 781 164 838 l 70 781 q 139 913 83 867 q 286 960 195 960 q 420 920 370 960 q 470 812 470 880 q 443 727 470 763 q 366 672 417 692 q 418 623 401 652 q 435 555 435 594 q 371 415 435 470 q 206 361 307 361 q 63 403 114 361 q 12 520 12 445 q 14 562 12 533 q 15 567 14 565 "},"¡":{"x_min":49,"x_max":396,"ha":446,"o":"m 312 746 l 185 0 l 49 0 l 236 746 l 312 746 m 396 999 l 364 847 l 215 847 l 248 999 l 396 999 "},"[":{"x_min":7,"x_max":513,"ha":492,"o":"m 7 -275 l 275 999 l 513 999 l 497 905 l 373 905 l 139 -181 l 269 -181 l 251 -275 l 7 -275 "},"%":{"x_min":49,"x_max":1125,"ha":1174,"o":"m 746 241 q 785 142 746 182 q 884 102 825 102 q 982 142 941 102 q 1023 241 1023 183 q 982 339 1023 299 q 884 380 942 380 q 786 339 826 380 q 746 241 746 299 m 644 241 q 713 412 644 342 q 884 482 783 482 q 1053 411 982 482 q 1125 241 1125 341 q 1054 70 1125 141 q 884 0 983 0 q 713 70 783 0 q 644 241 644 140 m 151 702 q 190 603 151 643 q 289 563 230 563 q 387 603 346 563 q 428 702 428 644 q 387 800 428 760 q 289 841 346 841 q 191 800 231 841 q 151 702 151 760 m 49 702 q 118 873 49 803 q 289 943 188 943 q 459 872 389 943 q 530 702 530 802 q 459 531 530 602 q 289 461 389 461 q 118 531 188 461 q 49 702 49 601 m 248 -27 l 842 970 l 927 970 l 332 -27 l 248 -27 "},"P":{"x_min":3,"x_max":827,"ha":855,"o":"m 250 533 l 447 533 q 636 581 576 533 q 696 734 696 629 q 655 849 696 813 q 525 885 614 885 l 325 885 l 250 533 m 3 0 l 215 999 l 547 999 q 755 931 683 999 q 827 737 827 864 q 728 498 827 579 q 437 418 630 418 l 225 418 l 135 0 l 3 0 "},"∏":{"x_min":106,"x_max":945,"ha":1051,"o":"m 106 999 l 945 999 l 945 -266 l 782 -266 l 782 860 l 269 860 l 269 -266 l 106 -266 l 106 999 "},"_":{"x_min":0,"x_max":694,"ha":694,"o":"m 694 -231 l 694 -328 l 0 -328 l 0 -231 l 694 -231 "},"ñ":{"x_min":-10,"x_max":693,"ha":766,"o":"m -10 0 l 144 726 l 255 726 l 231 617 q 357 709 291 679 q 496 739 422 739 q 643 699 593 739 q 693 581 693 659 q 689 541 693 564 q 680 490 686 518 l 577 0 l 453 0 l 554 473 q 562 518 560 499 q 565 553 565 537 q 536 614 565 593 q 456 636 508 636 q 284 566 352 636 q 189 364 216 497 l 112 0 l -10 0 m 679 1015 q 626 911 660 944 q 538 879 592 879 q 518 880 527 879 q 500 885 509 881 l 440 904 q 421 908 431 907 q 403 910 412 910 q 365 896 380 910 q 345 856 351 882 l 275 856 q 325 962 291 927 q 411 997 359 997 q 434 995 422 997 q 458 990 446 993 l 518 972 q 534 967 526 969 q 550 966 542 966 q 587 977 573 966 q 610 1015 601 989 l 679 1015 "},"‚":{"x_min":-33,"x_max":171,"ha":349,"o":"m -33 -176 l -20 -112 q 36 -73 15 -100 q 65 1 57 -45 l 0 1 l 29 143 l 171 143 l 139 1 q 77 -119 122 -72 q -33 -176 32 -165 "},"Æ":{"x_min":-123,"x_max":1300,"ha":1299,"o":"m 259 399 l 571 399 l 674 880 l 547 880 l 259 399 m -123 0 l 483 999 l 1300 999 l 1274 876 l 802 876 l 739 574 l 1195 574 l 1172 456 l 714 456 l 641 122 l 1150 122 l 1123 0 l 486 0 l 547 282 l 190 282 l 22 0 l -123 0 "},"₣":{"x_min":3,"x_max":1243,"ha":1202,"o":"m 3 0 l 212 999 l 788 999 l 762 878 l 321 878 l 256 574 l 682 574 l 656 452 l 230 452 l 133 0 l 3 0 m 744 0 l 896 726 l 1012 726 l 982 592 q 1089 711 1043 678 q 1187 745 1135 745 q 1213 743 1199 745 q 1243 739 1227 742 l 1212 602 q 1209 602 1211 602 q 1172 605 1184 605 q 1024 541 1082 605 q 939 349 967 478 l 864 0 l 744 0 "},"ğ":{"x_min":-13,"x_max":775,"ha":817,"o":"m 407 644 q 223 545 294 644 q 153 287 153 446 q 198 143 153 194 q 326 93 243 93 q 515 192 443 93 q 586 456 586 292 q 539 594 586 544 q 407 644 491 644 m -13 -72 l 108 -72 l 108 -83 q 151 -164 108 -134 q 268 -195 194 -195 q 437 -137 384 -195 q 520 83 490 -79 q 426 12 479 36 q 308 -11 372 -11 q 100 70 174 -11 q 26 298 26 151 q 134 621 26 492 q 403 750 242 750 q 543 714 486 750 q 630 606 599 678 l 656 726 l 775 726 l 620 -12 q 502 -231 588 -161 q 264 -301 416 -301 q 60 -241 133 -301 q -13 -75 -13 -181 l -13 -72 m 326 1037 l 396 1037 l 396 1024 q 418 960 396 980 q 492 940 441 940 q 589 963 551 940 q 648 1037 627 987 l 722 1037 q 635 894 694 942 q 486 846 576 846 q 365 885 406 846 q 325 1004 325 925 q 325 1023 325 1016 q 326 1037 325 1030 "},"ª":{"x_min":37.265625,"x_max":593,"ha":637,"o":"m 52 394 l 518 394 l 502 320 l 37 320 l 52 394 m 587 865 l 533 612 q 530 596 531 604 q 529 583 529 589 q 536 566 529 572 q 559 560 544 560 q 573 560 569 560 q 583 561 578 560 l 567 495 q 542 488 561 493 q 514 483 523 483 q 457 499 478 483 q 437 543 437 515 q 438 552 437 547 q 440 566 438 557 q 333 503 384 523 q 230 483 282 483 q 119 512 157 483 q 82 599 82 542 q 145 734 82 685 q 331 797 208 784 q 366 800 343 797 q 493 888 493 812 q 466 931 493 916 q 390 946 440 946 q 294 922 330 946 q 249 852 257 898 l 156 852 q 239 977 171 931 q 409 1023 307 1023 q 548 994 504 1023 q 593 906 593 966 q 591 889 593 900 q 587 865 590 878 m 466 756 q 359 730 429 739 q 259 713 288 721 q 202 677 223 702 q 182 623 182 653 q 205 576 182 593 q 268 560 228 560 q 385 596 333 560 q 451 687 438 632 l 466 756 "},"Œ":{"x_min":54,"x_max":1505,"ha":1504,"o":"m 698 191 l 829 800 q 730 882 787 855 q 598 910 672 910 q 441 875 512 910 q 315 771 370 840 q 222 598 256 698 q 189 399 189 498 q 259 170 189 255 q 451 85 330 85 q 578 111 517 85 q 698 191 639 137 m 658 0 l 675 79 q 553 0 618 26 q 412 -26 487 -26 q 152 89 250 -26 q 54 394 54 204 q 97 640 54 520 q 219 852 140 760 q 382 978 288 933 q 577 1023 477 1023 q 731 993 664 1023 q 849 900 797 963 l 870 999 l 1505 999 l 1479 876 l 976 876 l 910 574 l 1399 574 l 1376 456 l 885 456 l 814 122 l 1355 122 l 1330 0 l 658 0 "},"T":{"x_min":92,"x_max":831,"ha":751,"o":"m 208 0 l 396 885 l 92 885 l 115 999 l 831 999 l 805 885 l 529 885 l 342 0 l 208 0 "},"š":{"x_min":-14,"x_max":655,"ha":684,"o":"m -12 254 l 102 254 q 101 244 102 249 q 101 228 101 239 q 149 113 101 152 q 292 75 198 75 q 401 104 361 75 q 442 185 442 134 q 421 244 442 220 q 317 306 401 267 q 280 323 304 313 q 79 536 79 417 q 151 690 79 632 q 345 749 224 749 q 541 685 471 749 q 612 508 612 622 l 612 493 l 499 493 l 499 497 q 459 608 499 571 q 341 646 419 646 q 236 619 274 646 q 198 548 198 593 q 318 439 198 494 l 325 435 q 524 318 484 364 q 565 204 565 273 q 485 37 565 100 q 272 -25 406 -25 q 62 42 139 -25 q -14 226 -14 109 q -13 243 -14 237 q -12 254 -13 249 m 256 1060 l 329 1060 l 420 910 l 572 1060 l 655 1060 l 474 823 l 350 823 l 256 1060 "},"Þ":{"x_min":4,"x_max":787,"ha":836,"o":"m 216 382 l 408 382 q 599 426 541 382 q 657 569 657 470 q 617 664 657 635 q 486 693 578 693 l 283 693 l 216 382 m 4 0 l 216 999 l 347 999 l 307 806 l 508 806 q 716 744 646 806 q 787 563 787 683 q 689 342 787 416 q 400 268 592 268 l 193 268 l 136 0 l 4 0 "},"j":{"x_min":-129,"x_max":339,"ha":326,"o":"m 187 854 l 218 998 l 339 998 l 308 854 l 187 854 m -129 -285 l -111 -178 q -102 -178 -107 -178 q -87 -179 -97 -179 q -41 -166 -55 -179 q -19 -117 -27 -153 l 159 726 l 282 726 l 99 -130 q 40 -254 81 -218 q -78 -290 0 -290 q -102 -288 -89 -290 q -129 -285 -116 -287 "},"1":{"x_min":159,"x_max":600,"ha":762,"o":"m 270 0 l 426 733 q 308 708 374 717 q 159 697 241 699 l 179 789 q 395 837 315 793 q 512 971 475 881 l 600 971 l 393 0 l 270 0 "},"›":{"x_min":-14,"x_max":272,"ha":339,"o":"m 272 406 l 250 296 l -14 132 l 10 251 l 185 360 l 61 486 l 84 595 l 272 406 "},"<":{"x_min":179,"x_max":978,"ha":1157,"o":"m 978 682 l 320 413 l 978 147 l 978 43 l 179 371 l 179 458 l 978 786 l 978 682 "},"t":{"x_min":24,"x_max":398,"ha":368,"o":"m 261 0 q 213 -11 235 -7 q 176 -16 192 -16 q 61 13 99 -16 q 24 101 24 42 q 27 135 24 114 q 36 189 30 156 l 128 626 l 24 626 l 46 726 l 149 726 l 191 924 l 314 924 l 272 726 l 398 726 l 376 626 l 250 626 l 155 176 q 149 146 151 159 q 147 125 147 133 q 161 94 147 105 q 202 84 176 84 q 239 86 220 84 q 281 92 258 88 l 261 0 "},"¬":{"x_min":172,"x_max":984,"ha":1157,"o":"m 984 583 l 984 243 l 891 243 l 891 489 l 172 489 l 172 583 l 984 583 "},"ù":{"x_min":22,"x_max":723,"ha":766,"o":"m 723 726 l 570 0 l 459 0 l 481 109 q 355 18 421 48 q 215 -11 290 -11 q 70 27 119 -11 q 22 144 22 66 q 24 187 22 165 q 32 234 27 210 l 137 726 l 260 726 l 158 253 l 158 249 q 148 173 148 198 q 177 112 148 134 q 257 90 206 90 q 429 159 361 90 q 525 362 497 228 l 602 726 l 723 726 m 542 823 l 468 823 l 264 1060 l 400 1060 l 542 823 "},"ï":{"x_min":-5,"x_max":443,"ha":321,"o":"m -5 0 l 147 726 l 270 726 l 115 0 l -5 0 m 289 864 l 319 1006 l 443 1006 l 413 864 l 289 864 m 66 864 l 96 1006 l 220 1006 l 190 864 l 66 864 "},"Ò":{"x_min":54,"x_max":1007,"ha":1065,"o":"m 586 908 q 438 873 508 908 q 316 775 368 839 q 223 601 257 701 q 190 398 190 500 q 264 171 190 253 q 471 89 339 89 q 614 120 546 89 q 732 209 681 151 q 833 389 797 285 q 869 606 869 492 q 792 826 869 745 q 586 908 716 908 m 54 396 q 97 641 54 520 q 220 854 141 761 q 388 981 291 937 q 600 1025 486 1025 q 898 910 789 1025 q 1007 596 1007 796 q 962 349 1007 470 q 836 136 917 229 q 670 14 767 56 q 460 -28 573 -28 q 162 85 271 -28 q 54 396 54 199 m 733 1098 l 659 1098 l 455 1335 l 591 1335 l 733 1098 "},"&":{"x_min":17,"x_max":815,"ha":924,"o":"m 347 497 q 187 388 232 440 q 142 265 142 336 q 191 134 142 184 q 320 85 240 85 q 430 107 376 85 q 537 173 484 129 l 347 497 m 637 0 l 590 79 q 452 -1 524 25 q 304 -28 381 -28 q 98 51 179 -28 q 17 252 17 130 q 83 443 17 362 q 294 588 149 524 l 269 637 q 226 731 238 694 q 215 804 215 768 q 280 951 215 895 q 453 1008 345 1008 q 609 953 551 1008 q 668 806 668 898 q 617 663 668 726 q 457 544 566 600 l 623 265 q 673 350 653 306 q 701 447 692 395 l 815 447 q 771 291 804 361 q 683 165 739 221 l 782 0 l 637 0 m 402 636 q 515 717 481 678 q 550 805 550 757 q 522 881 550 855 q 441 908 494 908 q 363 879 391 908 q 335 802 335 851 q 343 755 335 782 q 369 697 352 727 l 402 636 "},"":{"x_min":-19,"x_max":759,"ha":762,"o":"m 702 346 q 564 68 660 168 q 343 -32 468 -32 q 132 63 205 -32 q 60 340 60 159 q 60 368 60 357 q 61 391 60 380 l -10 391 l 15 453 l 66 453 q 74 504 71 485 q 81 537 77 522 l -19 537 l 6 599 l 94 599 q 249 911 148 801 q 478 1022 349 1022 q 684 932 610 1022 q 759 681 759 842 l 759 665 l 627 665 l 627 677 q 588 852 627 792 q 475 913 549 913 q 335 832 397 913 q 231 599 273 752 l 537 599 l 510 537 l 215 537 q 208 505 212 522 q 200 453 205 487 l 472 453 l 446 391 l 193 391 q 191 344 191 359 q 191 316 191 329 q 230 137 191 197 q 346 77 269 77 q 485 149 424 77 q 572 346 546 222 l 702 346 "},"˝":{"x_min":294,"x_max":704,"ha":694,"o":"m 589 1061 l 704 1061 l 531 823 l 466 823 l 589 1061 m 398 1061 l 512 1061 l 359 823 l 294 823 l 398 1061 "},"I":{"x_min":5,"x_max":355,"ha":361,"o":"m 5 0 l 215 999 l 355 999 l 142 0 l 5 0 "},"G":{"x_min":61,"x_max":975,"ha":1046,"o":"m 760 0 l 769 107 q 628 5 706 39 q 455 -28 550 -28 q 164 85 268 -28 q 61 403 61 199 q 101 652 61 534 q 218 858 142 769 q 382 980 288 938 q 585 1023 475 1023 q 864 933 764 1023 q 975 679 965 844 l 841 679 q 766 846 833 787 q 581 905 698 905 q 426 868 494 905 q 302 755 357 831 q 224 591 252 686 q 196 398 196 497 q 271 169 196 250 q 484 89 346 89 q 694 172 607 89 q 820 408 782 255 l 506 408 l 528 517 l 972 517 l 863 0 l 760 0 "},"`":{"x_min":239,"x_max":517,"ha":694,"o":"m 517 823 l 443 823 l 239 1060 l 375 1060 l 517 823 "},"·":{"x_min":104,"x_max":278,"ha":380,"o":"m 104 476 q 128 537 104 512 q 190 563 153 563 q 252 538 227 563 q 278 476 278 513 q 252 414 278 440 q 190 389 226 389 q 129 414 154 389 q 104 476 104 440 "},"¿":{"x_min":-11,"x_max":601,"ha":729,"o":"m 463 727 q 425 591 457 649 q 331 486 394 532 q 253 433 306 468 q 183 380 200 398 q 136 310 151 346 q 121 233 121 275 q 164 124 121 163 q 284 85 207 85 q 417 138 367 85 q 480 290 468 191 l 601 290 q 506 58 591 142 q 280 -25 420 -25 q 67 44 146 -25 q -11 229 -11 113 q 27 375 -11 310 q 152 500 66 439 q 211 539 173 515 q 309 615 287 587 q 332 660 323 634 q 348 727 341 687 l 463 727 m 518 981 l 486 837 l 347 837 l 375 981 l 518 981 "},"ý":{"x_min":-57,"x_max":676,"ha":642,"o":"m 149 -36 l 30 726 l 161 726 l 240 115 l 541 726 l 676 726 l 204 -174 q 123 -269 169 -240 q 8 -298 77 -298 q -21 -294 -4 -298 q -57 -285 -37 -291 l -30 -176 q -7 -182 -19 -180 q 16 -185 4 -185 q 59 -173 40 -185 q 90 -141 77 -162 l 149 -36 m 381 823 l 299 823 l 456 1060 l 585 1060 l 381 823 "},"º":{"x_min":51.46875,"x_max":615,"ha":637,"o":"m 66 395 l 502 395 l 487 321 l 51 321 l 66 395 m 417 1023 q 563 974 511 1023 q 615 837 615 925 q 526 583 615 685 q 304 482 437 482 q 159 531 211 482 q 107 669 107 581 q 195 921 107 819 q 417 1023 283 1023 m 515 825 q 484 914 515 882 q 398 946 453 946 q 262 869 318 946 q 207 684 207 793 q 236 591 207 624 q 320 559 265 559 q 459 635 403 559 q 515 825 515 712 "},"∞":{"x_min":150,"x_max":1009,"ha":1157,"o":"m 620 378 q 699 288 654 319 q 801 258 744 258 q 913 303 870 258 q 957 421 957 349 q 917 535 957 489 q 816 580 877 580 q 716 534 761 580 q 620 378 671 488 m 538 451 q 459 541 504 511 q 357 571 414 571 q 245 526 288 571 q 202 409 202 481 q 241 295 202 340 q 342 250 281 250 q 443 296 397 250 q 538 451 488 342 m 586 327 q 485 192 538 235 q 368 150 432 150 q 213 225 276 150 q 150 413 150 301 q 206 605 150 532 q 354 679 263 679 q 470 636 418 679 q 571 499 522 593 q 671 637 617 593 q 790 682 724 682 q 945 606 881 682 q 1009 416 1009 529 q 952 225 1009 297 q 804 152 895 152 q 690 192 740 152 q 586 327 639 233 "},";":{"x_min":-10,"x_max":336,"ha":412,"o":"m 154 555 l 185 705 l 336 705 l 305 555 l 154 555 m -10 -215 l 5 -148 q 72 -98 47 -134 q 109 0 98 -62 l 36 0 l 66 149 l 218 149 l 185 0 q 117 -147 165 -94 q -10 -215 68 -200 "},"6":{"x_min":47,"x_max":739,"ha":762,"o":"m 391 535 q 234 462 295 535 q 173 275 173 389 q 217 126 173 178 q 343 74 261 74 q 497 152 435 74 q 560 348 560 230 q 514 485 560 436 q 391 535 469 535 m 204 549 q 309 616 253 594 q 430 639 364 639 q 619 563 548 639 q 690 361 690 488 q 591 81 690 188 q 334 -26 493 -26 q 121 63 196 -26 q 47 318 47 153 q 86 593 47 458 q 194 821 126 728 q 324 934 248 895 q 492 973 401 973 q 675 907 611 973 q 739 721 739 842 l 739 706 l 616 706 q 582 824 616 785 q 481 863 549 863 q 314 785 383 863 q 204 549 245 707 "},"n":{"x_min":-10,"x_max":693,"ha":766,"o":"m -10 0 l 144 726 l 255 726 l 231 617 q 357 709 291 679 q 496 739 422 739 q 643 699 593 739 q 693 581 693 659 q 689 541 693 564 q 680 490 686 518 l 577 0 l 453 0 l 554 473 q 562 518 560 499 q 565 553 565 537 q 536 614 565 593 q 456 636 508 636 q 284 566 352 636 q 189 364 216 497 l 112 0 l -10 0 "},"¤":{"x_min":-19,"x_max":759,"ha":762,"o":"m 702 346 q 564 68 660 168 q 343 -32 468 -32 q 132 63 205 -32 q 60 340 60 159 q 60 368 60 357 q 61 391 60 380 l -10 391 l 15 453 l 66 453 q 74 504 71 485 q 81 537 77 522 l -19 537 l 6 599 l 94 599 q 249 911 148 801 q 478 1022 349 1022 q 684 932 610 1022 q 759 681 759 842 l 759 665 l 627 665 l 627 677 q 588 852 627 792 q 475 913 549 913 q 335 832 397 913 q 231 599 273 752 l 537 599 l 510 537 l 215 537 q 208 505 212 522 q 200 453 205 487 l 472 453 l 446 391 l 193 391 q 191 344 191 359 q 191 316 191 329 q 230 137 191 197 q 346 77 269 77 q 485 149 424 77 q 572 346 546 222 l 702 346 "},"∂":{"x_min":71,"x_max":652,"ha":718,"o":"m 513 421 q 528 535 523 480 q 533 641 533 591 q 508 773 533 729 q 435 818 484 818 q 349 778 397 818 q 275 739 300 739 q 235 754 251 739 q 219 790 219 769 q 267 865 219 832 q 385 899 316 899 q 579 793 507 899 q 652 510 652 688 q 554 132 652 282 q 311 -17 456 -17 q 139 56 208 -17 q 71 240 71 129 q 145 461 71 374 q 330 549 220 549 q 443 518 399 549 q 513 421 487 487 m 480 335 q 450 456 480 414 q 367 499 421 499 q 245 411 293 499 q 198 183 198 323 q 227 62 198 104 q 310 21 256 21 q 432 109 384 21 q 480 335 480 197 "},"p":{"x_min":-58,"x_max":741,"ha":819,"o":"m 447 641 q 259 534 336 641 q 181 273 181 428 q 226 132 181 182 q 352 82 272 82 q 538 187 462 82 q 614 451 614 293 q 569 590 614 540 q 447 641 525 641 m -58 -290 l 145 726 l 258 726 l 237 622 q 344 712 285 682 q 472 743 403 743 q 669 663 598 743 q 741 441 741 583 q 712 263 741 348 q 631 111 684 177 q 512 12 579 46 q 368 -22 444 -22 q 237 10 293 -22 q 139 108 180 42 l 56 -290 l -58 -290 "},"‡":{"x_min":-8,"x_max":665,"ha":694,"o":"m 173 -144 l 220 134 l -8 134 l 10 234 l 239 234 l 307 621 l 77 621 l 95 720 l 324 720 l 374 999 l 486 999 l 437 720 l 665 720 l 649 621 l 420 621 l 352 234 l 580 234 l 563 134 l 336 134 l 286 -144 l 173 -144 "},"√":{"x_min":41,"x_max":885,"ha":885,"o":"m 756 1126 l 885 1126 l 885 1061 l 806 1061 l 403 -28 l 359 -28 l 142 570 l 57 540 l 41 594 l 233 661 l 406 180 l 756 1126 "},"S":{"x_min":5.59375,"x_max":798,"ha":829,"o":"m 7 310 l 132 310 l 132 291 q 190 142 132 196 q 353 89 249 89 q 517 139 456 89 q 578 275 578 190 q 393 448 578 371 l 393 449 q 173 579 222 521 q 124 736 124 637 q 218 945 124 866 q 469 1025 313 1025 q 712 946 626 1025 q 798 725 798 868 l 798 713 l 668 713 l 668 717 q 616 864 668 814 q 461 914 564 914 q 310 867 366 914 q 255 744 255 821 q 420 584 255 656 q 460 567 446 573 q 664 440 612 500 q 716 290 716 380 q 615 56 716 141 q 339 -29 514 -29 q 96 55 186 -29 q 5 283 5 140 q 6 296 5 287 q 7 310 7 305 "},"/":{"x_min":-1,"x_max":419,"ha":418,"o":"m -1 -129 l 333 1025 l 419 1025 l 82 -129 l -1 -129 "},"y":{"x_min":-57,"x_max":676,"ha":642,"o":"m 149 -36 l 30 726 l 161 726 l 240 115 l 541 726 l 676 726 l 204 -174 q 123 -269 169 -240 q 8 -298 77 -298 q -21 -294 -4 -298 q -57 -285 -37 -291 l -30 -176 q -7 -182 -19 -180 q 16 -185 4 -185 q 59 -173 40 -185 q 90 -141 77 -162 l 149 -36 "},"≈":{"x_min":121,"x_max":1038,"ha":1157,"o":"m 1038 292 q 902 219 966 242 q 774 196 838 196 q 580 242 709 196 q 382 288 451 288 q 265 263 326 288 q 121 180 205 239 l 121 286 q 259 360 194 336 q 383 385 324 385 q 590 338 461 385 q 775 292 719 292 q 895 316 835 292 q 1038 397 955 340 l 1038 292 m 1038 542 q 902 469 966 492 q 774 446 838 446 q 580 492 709 446 q 382 539 451 539 q 265 514 325 539 q 121 431 205 489 l 121 537 q 258 610 192 586 q 383 635 323 635 q 590 588 462 635 q 775 542 719 542 q 894 565 834 542 q 1038 648 953 589 l 1038 542 "},"g":{"x_min":-13,"x_max":775,"ha":817,"o":"m 407 644 q 223 545 294 644 q 153 287 153 446 q 198 143 153 194 q 326 93 243 93 q 515 192 443 93 q 586 456 586 292 q 539 594 586 544 q 407 644 491 644 m -13 -72 l 108 -72 l 108 -83 q 151 -164 108 -134 q 268 -195 194 -195 q 437 -137 384 -195 q 520 83 490 -79 q 426 12 479 36 q 308 -11 372 -11 q 100 70 174 -11 q 26 298 26 151 q 134 621 26 492 q 403 750 242 750 q 543 714 486 750 q 630 606 599 678 l 656 726 l 775 726 l 620 -12 q 502 -231 588 -161 q 264 -301 416 -301 q 60 -241 133 -301 q -13 -75 -13 -181 l -13 -72 "},"²":{"x_min":3,"x_max":468,"ha":503,"o":"m 3 378 q 25 464 8 427 q 72 529 42 501 q 124 571 94 550 q 221 629 154 592 l 224 631 q 382 798 382 722 q 354 868 382 842 q 279 894 326 894 q 185 863 218 894 q 142 767 151 832 l 57 767 q 125 910 69 861 q 278 960 182 960 q 416 916 364 960 q 468 800 468 873 q 433 695 468 740 q 305 597 398 649 q 260 571 289 588 q 101 443 124 495 l 419 443 l 404 378 l 3 378 "},"ë":{"x_min":24,"x_max":699,"ha":770,"o":"m 169 428 l 567 428 q 569 440 569 434 q 570 459 570 446 q 525 594 570 545 q 404 643 481 643 q 255 587 316 643 q 169 428 193 531 m 659 237 q 542 45 633 114 q 319 -24 452 -24 q 100 57 176 -24 q 24 292 24 139 q 130 622 24 494 q 404 750 237 750 q 619 670 539 750 q 699 455 699 590 q 696 399 699 430 q 688 329 693 368 l 149 329 q 149 325 149 327 q 147 283 147 295 q 195 133 147 185 q 336 82 244 82 q 463 123 409 82 q 535 237 516 165 l 659 237 m 476 864 l 506 1006 l 630 1006 l 600 864 l 476 864 m 253 864 l 283 1006 l 407 1006 l 377 864 l 253 864 "},"–":{"x_min":-33,"x_max":678,"ha":694,"o":"m -33 330 l -16 404 l 678 404 l 661 330 l -33 330 "},"ƒ":{"x_min":-20,"x_max":708,"ha":762,"o":"m -20 -255 l 13 -146 q 53 -165 33 -159 q 95 -172 74 -172 q 170 -132 144 -172 q 219 38 195 -92 l 312 543 l 168 543 l 168 643 l 333 643 q 427 941 370 858 q 588 1025 484 1025 q 647 1017 618 1025 q 708 994 677 1010 l 677 891 q 636 908 655 902 q 600 914 617 914 q 519 863 547 914 q 463 643 491 813 l 619 643 l 619 543 l 445 543 l 362 95 q 264 -207 321 -127 q 102 -287 207 -287 q 40 -279 70 -287 q -20 -255 10 -271 "},"J":{"x_min":-32,"x_max":679,"ha":686,"o":"m -17 325 l 114 325 q 100 258 104 288 q 96 205 96 229 q 125 121 96 150 q 211 92 154 92 q 331 141 289 92 q 404 331 373 190 l 546 999 l 679 999 l 525 279 q 416 42 490 114 q 209 -29 341 -29 q 32 30 96 -29 q -32 194 -32 89 q -28 254 -32 221 q -17 325 -24 287 "},"Ã":{"x_min":-102,"x_max":769,"ha":839,"o":"m 252 399 l 570 399 l 497 861 l 252 399 m -102 0 l 435 999 l 602 999 l 769 0 l 634 0 l 589 282 l 191 282 l 42 0 l -102 0 m 756 1290 q 703 1186 737 1219 q 615 1154 669 1154 q 595 1155 604 1154 q 577 1160 586 1156 l 517 1179 q 498 1183 508 1182 q 480 1185 489 1185 q 442 1171 457 1185 q 422 1131 428 1157 l 352 1131 q 402 1237 368 1202 q 488 1272 436 1272 q 511 1270 499 1272 q 535 1265 523 1268 l 595 1247 q 611 1242 603 1244 q 627 1241 619 1241 q 664 1252 650 1241 q 687 1290 678 1264 l 756 1290 "},"©":{"x_min":79,"x_max":1079,"ha":1157,"o":"m 714 615 q 669 695 705 667 q 575 724 633 724 q 463 662 504 724 q 423 493 423 601 q 464 327 423 386 q 582 268 506 268 q 674 299 637 268 q 721 387 711 331 l 819 387 q 746 244 812 299 q 577 189 679 189 q 384 270 454 189 q 314 497 314 351 q 387 715 314 632 q 581 799 461 799 q 742 748 678 799 q 813 615 806 697 l 714 615 m 1014 492 q 981 659 1014 580 q 888 799 949 738 q 746 894 825 861 q 579 927 668 927 q 414 895 492 927 q 275 802 336 863 q 177 658 211 739 q 144 492 144 578 q 177 328 144 406 q 273 186 210 249 q 414 91 335 124 q 579 59 492 59 q 744 92 664 59 q 888 188 823 125 q 982 325 950 248 q 1014 492 1014 403 m 577 993 q 771 956 680 993 q 933 847 861 919 q 1041 685 1003 777 q 1079 493 1079 593 q 1042 302 1079 391 q 934 142 1005 212 q 767 31 859 70 q 577 -7 676 -7 q 388 30 479 -7 q 226 141 298 68 q 116 303 154 212 q 79 493 79 393 q 116 683 79 592 q 227 848 154 775 q 387 956 298 919 q 577 993 477 993 "},"˘":{"x_min":264,"x_max":661,"ha":694,"o":"m 265 1037 l 335 1037 l 335 1024 q 357 960 335 980 q 431 940 380 940 q 528 963 490 940 q 587 1037 566 987 l 661 1037 q 574 894 633 942 q 425 846 515 846 q 304 885 345 846 q 264 1004 264 925 q 264 1023 264 1016 q 265 1037 264 1030 "},"≥":{"x_min":178,"x_max":981,"ha":1157,"o":"m 981 110 l 981 16 l 178 16 l 178 110 l 981 110 m 981 550 l 981 467 l 178 200 l 178 301 l 814 508 l 178 718 l 178 818 l 981 550 "},"D":{"x_min":3,"x_max":924,"ha":990,"o":"m 160 113 l 351 113 q 553 139 484 113 q 668 228 621 165 q 751 391 723 299 q 780 590 780 483 q 712 816 780 748 q 484 885 644 885 l 325 885 l 160 113 m 3 0 l 216 999 l 501 999 q 823 899 722 999 q 924 584 924 800 q 890 350 924 458 q 793 164 856 242 q 731 99 765 128 q 656 48 696 71 q 548 11 608 22 q 376 0 489 0 l 3 0 "},"ÿ":{"x_min":-57,"x_max":676,"ha":642,"o":"m 149 -36 l 30 726 l 161 726 l 240 115 l 541 726 l 676 726 l 204 -174 q 123 -269 169 -240 q 8 -298 77 -298 q -21 -294 -4 -298 q -57 -285 -37 -291 l -30 -176 q -7 -182 -19 -180 q 16 -185 4 -185 q 59 -173 40 -185 q 90 -141 77 -162 l 149 -36 m 449 864 l 479 1006 l 603 1006 l 573 864 l 449 864 m 226 864 l 256 1006 l 380 1006 l 350 864 l 226 864 "},"ł":{"x_min":-31,"x_max":369,"ha":335,"o":"m 0 0 l 90 427 l 8 383 l -31 453 l 113 536 l 211 999 l 333 999 l 247 592 l 327 640 l 369 571 l 224 488 l 121 0 l 0 0 "},"Ł":{"x_min":-47,"x_max":689,"ha":778,"o":"m 12 0 l 101 416 l -2 356 l -47 434 l 126 534 l 225 999 l 355 999 l 270 598 l 524 744 l 569 666 l 245 479 l 170 121 l 689 121 l 663 0 l 12 0 "},"$":{"x_min":10,"x_max":724,"ha":762,"o":"m 324 84 l 343 84 q 475 132 425 84 q 526 260 526 181 q 496 352 526 317 q 395 412 466 387 l 324 84 m 359 563 l 425 867 l 419 867 q 295 819 342 867 q 249 693 249 771 q 275 616 249 646 q 359 563 301 585 m 205 -135 l 231 -16 q 66 81 122 9 q 10 265 10 152 l 10 282 l 131 282 q 163 151 132 198 q 255 92 194 103 l 331 439 q 168 542 218 481 q 119 701 119 604 q 207 894 119 817 q 433 971 295 971 l 448 971 l 463 1048 l 534 1048 l 516 964 q 671 886 618 948 q 724 722 724 824 l 724 702 l 607 703 q 576 811 603 774 q 492 861 549 849 l 423 538 q 605 432 553 490 q 658 282 658 374 q 562 58 658 141 q 301 -25 467 -23 l 278 -135 l 205 -135 "},"w":{"x_min":37,"x_max":1055,"ha":1021,"o":"m 130 0 l 37 726 l 155 726 l 220 156 l 471 726 l 606 726 l 637 149 l 923 726 l 1055 726 l 666 0 l 541 0 l 509 555 l 254 0 l 130 0 "},"\\":{"x_min":121,"x_max":296,"ha":418,"o":"m 212 -129 l 121 1025 l 201 1025 l 296 -129 l 212 -129 "},"∫":{"x_min":32,"x_max":690,"ha":724,"o":"m 210 -178 q 291 288 282 -178 q 294 400 293 361 q 366 900 302 749 q 567 1051 430 1051 q 656 1022 622 1051 q 690 949 690 993 q 668 891 690 912 q 609 870 646 870 q 561 882 580 870 q 534 919 542 895 q 527 954 530 929 q 513 979 524 979 q 431 559 440 979 q 426 353 428 428 q 350 -111 414 28 q 153 -252 286 -252 q 66 -223 100 -252 q 32 -151 32 -195 q 55 -92 32 -113 q 119 -71 78 -71 q 157 -80 141 -71 q 184 -109 174 -90 q 194 -149 191 -121 q 210 -178 197 -178 "},"Ì":{"x_min":5,"x_max":406,"ha":361,"o":"m 5 0 l 215 999 l 355 999 l 142 0 l 5 0 m 406 1098 l 332 1098 l 128 1335 l 264 1335 l 406 1098 "},"Ç":{"x_min":60,"x_max":950,"ha":982,"o":"m 772 355 l 900 355 q 738 69 858 167 q 432 -28 619 -28 l 422 -28 l 406 -69 l 422 -69 q 531 -98 494 -69 q 569 -187 569 -128 q 522 -284 569 -248 q 396 -321 476 -321 q 316 -312 362 -321 q 208 -286 271 -303 l 233 -219 q 324 -243 290 -236 q 384 -250 358 -250 q 447 -233 426 -250 q 469 -183 469 -216 q 443 -141 469 -153 q 350 -129 418 -129 l 334 -129 l 367 -23 q 141 113 222 2 q 60 398 60 224 q 94 625 60 515 q 193 821 129 734 q 363 969 266 920 q 580 1019 460 1019 q 844 926 748 1019 q 950 665 941 833 l 816 665 q 746 836 811 775 q 566 898 680 898 q 413 859 481 898 q 294 742 344 820 q 220 578 245 666 q 195 398 195 490 q 263 166 195 247 q 458 85 331 85 q 647 152 568 85 q 772 355 725 219 "},"C":{"x_min":60,"x_max":950,"ha":982,"o":"m 772 355 l 900 355 q 738 72 861 176 q 445 -31 616 -31 q 161 82 263 -31 q 60 399 60 196 q 94 625 60 517 q 193 821 128 733 q 362 969 264 919 q 580 1019 460 1019 q 844 926 748 1019 q 950 665 940 834 l 816 665 q 745 837 811 776 q 566 898 680 898 q 412 859 480 898 q 294 744 344 820 q 220 580 245 667 q 195 400 195 493 q 263 165 195 246 q 462 84 331 84 q 647 152 568 84 q 772 355 725 220 "},"!":{"x_min":49,"x_max":396,"ha":446,"o":"m 132 253 l 258 999 l 396 999 l 208 253 l 132 253 m 49 0 l 80 151 l 231 151 l 196 0 l 49 0 "},"ç":{"x_min":25,"x_max":701,"ha":772,"o":"m 540 269 l 661 269 q 539 55 630 128 q 295 -22 448 -16 l 280 -69 l 295 -69 q 405 -98 369 -69 q 441 -187 441 -128 q 395 -285 441 -249 q 270 -321 350 -321 q 191 -312 237 -321 q 82 -286 145 -303 l 107 -219 q 197 -243 163 -236 q 256 -250 231 -250 q 321 -233 299 -250 q 343 -183 343 -216 q 316 -141 343 -154 q 223 -129 290 -129 l 206 -129 l 242 -20 q 80 84 136 2 q 25 301 25 167 q 139 620 25 492 q 425 749 254 749 q 626 679 553 749 q 701 482 698 609 l 578 482 q 533 599 578 556 q 413 643 489 643 q 231 539 308 643 q 154 291 154 436 q 197 142 154 196 q 319 89 241 89 q 455 136 397 89 q 540 269 512 183 "},"È":{"x_min":3,"x_max":818,"ha":817,"o":"m 3 0 l 213 999 l 818 999 l 791 876 l 319 876 l 255 574 l 712 574 l 687 456 l 230 456 l 158 122 l 668 122 l 641 0 l 3 0 m 634 1098 l 560 1098 l 356 1335 l 492 1335 l 634 1098 "},"X":{"x_min":-75,"x_max":798,"ha":726,"o":"m -75 0 l 295 511 l 63 999 l 204 999 l 379 616 l 644 999 l 798 999 l 436 499 l 672 0 l 532 0 l 351 394 l 76 0 l -75 0 "},"ô":{"x_min":21,"x_max":721,"ha":798,"o":"m 408 643 q 304 617 350 643 q 224 540 258 592 q 169 417 189 488 q 149 278 149 346 q 194 135 149 185 q 324 86 240 86 q 516 189 442 86 q 591 455 591 292 q 544 595 591 547 q 408 643 497 643 m 21 287 q 133 620 21 490 q 421 750 245 750 q 640 667 560 750 q 721 441 721 584 q 608 109 721 239 q 320 -20 496 -20 q 99 60 178 -20 q 21 287 21 141 m 625 823 l 551 823 l 461 972 l 308 823 l 226 823 l 407 1060 l 532 1060 l 625 823 "},"đ":{"x_min":21,"x_max":914,"ha":827,"o":"m 513 0 l 528 89 q 419 3 475 30 q 292 -24 362 -24 q 92 55 164 -24 q 21 280 21 135 q 131 609 21 475 q 400 743 242 743 q 534 708 475 743 q 631 605 592 674 l 674 816 l 431 816 l 446 894 l 691 894 l 712 999 l 830 999 l 808 894 l 914 894 l 898 816 l 791 816 l 623 0 l 513 0 m 585 444 q 538 587 585 535 q 410 639 492 639 q 223 533 300 639 q 147 271 147 428 q 191 128 147 180 q 313 76 236 76 q 508 181 431 76 q 585 444 585 286 "},"}":{"x_min":108,"x_max":582,"ha":694,"o":"m 390 758 l 390 592 q 426 451 390 492 q 551 410 463 410 q 566 411 556 410 q 582 412 576 412 l 582 310 q 567 310 577 310 q 552 311 556 311 q 426 270 463 311 q 390 128 390 229 l 390 -36 q 374 -180 390 -137 q 322 -246 359 -223 q 252 -272 293 -264 q 137 -280 210 -280 l 108 -280 l 108 -178 l 134 -178 q 244 -147 215 -178 q 273 -23 273 -117 l 273 139 q 303 294 273 248 q 409 359 333 340 q 303 426 333 380 q 273 581 273 472 l 273 745 q 244 869 273 839 q 134 900 215 900 l 108 900 l 108 1002 l 133 1002 q 249 993 205 1002 q 322 966 292 985 q 374 901 359 943 q 390 758 390 858 "},"â":{"x_min":-11,"x_max":645,"ha":733,"o":"m 481 365 q 336 338 426 345 q 218 325 246 331 q 139 282 165 312 q 114 200 114 251 q 146 115 114 146 q 234 84 179 84 q 402 155 339 84 q 481 365 464 227 m 443 82 q 338 4 395 30 q 213 -22 281 -22 q 48 36 107 -22 q -11 200 -11 95 q 62 372 -11 316 q 312 439 136 428 q 321 439 315 439 q 519 549 519 452 q 486 618 519 596 q 381 641 453 641 q 241 614 280 641 q 186 516 202 588 l 65 516 q 162 687 83 630 q 381 745 241 745 q 576 700 508 745 q 645 575 645 656 q 642 549 645 566 q 631 489 639 531 l 565 181 q 559 151 561 165 q 557 121 557 136 q 570 91 557 101 q 607 81 582 81 q 622 82 615 81 q 638 85 630 83 l 619 0 q 585 -6 603 -4 q 542 -8 567 -8 q 468 14 493 -8 q 443 82 443 37 m 621 823 l 547 823 l 457 972 l 304 823 l 222 823 l 403 1060 l 528 1060 l 621 823 "},"ø":{"x_min":-9.5,"x_max":739.3125,"ha":798,"o":"m 34 -33 l -9 5 l 73 94 q 33 180 46 134 q 21 281 21 226 q 133 618 21 487 q 422 750 246 750 q 531 733 481 750 q 625 682 581 716 l 694 756 l 739 716 l 663 637 q 707 548 693 596 q 721 442 721 500 q 609 109 721 238 q 320 -20 497 -20 q 204 -2 255 -20 q 114 50 153 15 l 34 -33 m 193 135 q 246 93 215 107 q 318 80 278 80 q 513 184 435 80 q 591 448 591 289 q 587 499 591 475 q 577 544 584 523 l 193 135 m 162 188 l 542 596 q 487 631 520 619 q 408 643 454 643 q 221 541 297 643 q 146 289 146 439 q 150 236 146 262 q 162 188 154 211 "},"Ä":{"x_min":-102,"x_max":769,"ha":839,"o":"m 252 399 l 570 399 l 497 861 l 252 399 m -102 0 l 435 999 l 602 999 l 769 0 l 634 0 l 589 282 l 191 282 l 42 0 l -102 0 m 588 1139 l 618 1281 l 742 1281 l 712 1139 l 588 1139 m 365 1139 l 395 1281 l 519 1281 l 489 1139 l 365 1139 "},"‰":{"x_min":49,"x_max":1706,"ha":1754,"o":"m 1327 241 q 1366 142 1327 182 q 1465 102 1406 102 q 1563 142 1522 102 q 1604 241 1604 183 q 1563 339 1604 299 q 1465 380 1523 380 q 1367 339 1407 380 q 1327 241 1327 299 m 1225 241 q 1294 412 1225 342 q 1465 482 1364 482 q 1634 411 1563 482 q 1706 241 1706 341 q 1635 70 1706 141 q 1465 0 1564 0 q 1294 70 1364 0 q 1225 241 1225 140 m 748 241 q 787 142 748 182 q 886 102 827 102 q 984 142 943 102 q 1025 241 1025 183 q 984 339 1025 299 q 886 380 944 380 q 788 339 828 380 q 748 241 748 299 m 646 241 q 715 412 646 342 q 886 482 785 482 q 1055 411 984 482 q 1127 241 1127 341 q 1056 70 1127 141 q 886 0 985 0 q 715 70 785 0 q 646 241 646 140 m 151 702 q 190 603 151 643 q 289 563 230 563 q 387 603 346 563 q 428 702 428 644 q 387 800 428 760 q 289 841 346 841 q 191 800 231 841 q 151 702 151 760 m 49 702 q 118 873 49 803 q 289 943 188 943 q 459 872 389 943 q 530 702 530 802 q 459 531 530 602 q 289 461 389 461 q 118 531 188 461 q 49 702 49 601 m 248 -27 l 844 970 l 929 970 l 332 -27 l 248 -27 "},"N":{"x_min":3,"x_max":968,"ha":971,"o":"m 3 0 l 213 999 l 344 999 l 670 210 l 837 999 l 968 999 l 757 0 l 629 0 l 300 781 l 133 0 l 3 0 "},"—":{"x_min":-33,"x_max":1372,"ha":1389,"o":"m -16 404 l 1372 404 l 1355 330 l -33 330 l -16 404 "},"2":{"x_min":4,"x_max":710,"ha":762,"o":"m 4 0 q 37 142 11 79 q 109 252 63 204 q 331 416 170 315 l 334 418 l 338 421 q 578 699 578 571 q 536 815 578 773 q 422 858 494 858 q 279 806 330 858 q 215 648 229 755 l 86 648 q 191 888 105 806 q 421 971 276 971 q 631 898 552 971 q 710 703 710 825 q 656 528 710 604 q 463 365 602 452 q 397 324 440 350 q 153 110 189 196 l 634 110 l 612 0 l 4 0 "},"ü":{"x_min":22,"x_max":723,"ha":766,"o":"m 723 726 l 570 0 l 459 0 l 481 109 q 355 18 421 48 q 215 -11 290 -11 q 70 27 119 -11 q 22 144 22 66 q 24 187 22 165 q 32 234 27 210 l 137 726 l 260 726 l 158 253 l 158 249 q 148 173 148 198 q 177 112 148 134 q 257 90 206 90 q 429 159 361 90 q 525 362 497 228 l 602 726 l 723 726 m 500 864 l 530 1006 l 654 1006 l 624 864 l 500 864 m 277 864 l 307 1006 l 431 1006 l 401 864 l 277 864 "},"":{"x_min":8,"x_max":679,"ha":673,"o":"m 347 0 l 559 999 l 679 999 l 466 0 l 347 0 m 8 0 l 136 626 l 35 626 l 55 726 l 156 726 l 178 840 q 239 965 197 928 q 364 1003 282 1003 q 399 1001 379 1003 q 445 995 418 999 l 425 886 q 398 890 411 889 q 369 892 384 892 q 319 874 335 892 q 291 798 303 857 l 276 726 l 400 726 l 381 626 l 255 626 l 128 0 l 8 0 "},"Ó":{"x_min":54,"x_max":1007,"ha":1065,"o":"m 586 908 q 438 873 508 908 q 316 775 368 839 q 223 601 257 701 q 190 398 190 500 q 264 171 190 253 q 471 89 339 89 q 614 120 546 89 q 732 209 681 151 q 833 389 797 285 q 869 606 869 492 q 792 826 869 745 q 586 908 716 908 m 54 396 q 97 641 54 520 q 220 854 141 761 q 388 981 291 937 q 600 1025 486 1025 q 898 910 789 1025 q 1007 596 1007 796 q 962 349 1007 470 q 836 136 917 229 q 670 14 767 56 q 460 -28 573 -28 q 162 85 271 -28 q 54 396 54 199 m 623 1098 l 541 1098 l 698 1335 l 827 1335 l 623 1098 "},"˜":{"x_min":239,"x_max":643,"ha":694,"o":"m 643 1015 q 590 911 624 944 q 502 879 556 879 q 482 880 491 879 q 464 885 473 881 l 404 904 q 385 908 395 907 q 367 910 376 910 q 329 896 344 910 q 309 856 315 882 l 239 856 q 289 962 255 927 q 375 997 323 997 q 398 995 386 997 q 422 990 410 993 l 482 972 q 498 967 490 969 q 514 966 506 966 q 551 977 537 966 q 574 1015 565 989 l 643 1015 "},"ˇ":{"x_min":261,"x_max":660,"ha":694,"o":"m 261 1060 l 334 1060 l 425 910 l 577 1060 l 660 1060 l 479 823 l 355 823 l 261 1060 "},"Ÿ":{"x_min":47,"x_max":817,"ha":715,"o":"m 186 0 l 271 413 l 47 999 l 185 999 l 357 536 l 665 999 l 817 999 l 400 393 l 320 0 l 186 0 m 540 1139 l 570 1281 l 694 1281 l 664 1139 l 540 1139 m 317 1139 l 347 1281 l 471 1281 l 441 1139 l 317 1139 "},"€":{"x_min":-19,"x_max":759,"ha":762,"o":"m 702 346 q 564 68 660 168 q 343 -32 468 -32 q 132 63 205 -32 q 60 340 60 159 q 60 368 60 357 q 61 391 60 380 l -10 391 l 15 453 l 66 453 q 74 504 71 485 q 81 537 77 522 l -19 537 l 6 599 l 94 599 q 249 911 148 801 q 478 1022 349 1022 q 684 932 610 1022 q 759 681 759 842 l 759 665 l 627 665 l 627 677 q 588 852 627 792 q 475 913 549 913 q 335 832 397 913 q 231 599 273 752 l 537 599 l 510 537 l 215 537 q 208 505 212 522 q 200 453 205 487 l 472 453 l 446 391 l 193 391 q 191 344 191 359 q 191 316 191 329 q 230 137 191 197 q 346 77 269 77 q 485 149 424 77 q 572 346 546 222 l 702 346 "},"ß":{"x_min":-7,"x_max":730,"ha":775,"o":"m -7 0 l 157 763 q 262 943 182 880 q 463 1007 341 1007 q 659 943 588 1007 q 730 768 730 880 q 689 630 730 689 q 572 540 648 570 q 655 456 627 506 q 683 342 683 405 q 577 87 683 186 q 308 -12 472 -12 q 261 -9 285 -12 q 211 0 237 -6 l 236 110 q 281 101 261 104 q 317 99 301 99 q 483 164 417 99 q 549 326 549 229 q 501 456 549 414 q 357 499 454 499 q 332 498 341 499 q 316 497 323 498 l 339 594 q 354 593 347 593 q 378 593 362 593 q 545 637 489 593 q 602 769 602 681 q 562 863 602 829 q 456 898 523 898 q 339 859 385 898 q 278 747 294 820 l 116 0 l -7 0 "},"s":{"x_min":-14,"x_max":612,"ha":684,"o":"m -12 254 l 102 254 q 101 244 102 249 q 101 228 101 239 q 149 113 101 152 q 292 75 198 75 q 401 104 361 75 q 442 185 442 134 q 421 244 442 220 q 317 306 401 267 q 280 323 304 313 q 79 536 79 417 q 151 690 79 632 q 345 749 224 749 q 541 685 471 749 q 612 508 612 622 l 612 493 l 499 493 l 499 497 q 459 608 499 571 q 341 646 419 646 q 236 619 274 646 q 198 548 198 593 q 318 439 198 494 l 325 435 q 524 318 484 364 q 565 204 565 273 q 485 37 565 100 q 272 -25 406 -25 q 62 42 139 -25 q -14 226 -14 109 q -13 243 -14 237 q -12 254 -13 249 "},"?":{"x_min":93,"x_max":705,"ha":729,"o":"m 176 0 l 207 144 l 347 144 l 318 0 l 176 0 m 231 254 q 267 388 236 331 q 362 492 299 446 q 439 545 385 509 q 510 599 493 581 q 557 669 542 633 q 573 746 573 705 q 529 855 573 816 q 409 895 486 895 q 276 841 326 895 q 214 690 225 788 l 93 690 q 187 920 102 837 q 413 1004 272 1004 q 626 935 547 1004 q 705 751 705 866 q 666 603 705 669 q 541 479 627 538 q 479 438 520 463 q 384 365 406 393 q 361 320 370 346 q 346 254 352 293 l 231 254 "},"c":{"x_min":25,"x_max":701,"ha":772,"o":"m 540 269 l 661 269 q 537 55 631 135 q 313 -24 442 -24 q 97 57 170 -24 q 25 298 25 138 q 54 473 25 391 q 142 622 84 556 q 269 716 197 684 q 423 749 340 749 q 625 679 553 749 q 701 482 697 610 l 578 482 q 534 600 578 557 q 413 643 490 643 q 231 540 308 643 q 154 291 154 437 q 198 141 154 193 q 324 90 242 90 q 454 137 397 90 q 540 269 512 185 "},"¶":{"x_min":45,"x_max":651,"ha":694,"o":"m 651 945 l 570 945 l 570 0 l 493 0 l 493 945 l 374 945 l 374 0 l 297 0 l 297 530 q 113 599 181 535 q 45 766 45 663 q 117 937 45 872 q 311 1003 190 1003 l 651 1003 l 651 945 "},"•":{"x_min":208,"x_max":609,"ha":819,"o":"m 208 516 q 266 657 208 599 q 409 716 325 716 q 550 657 491 716 q 609 516 609 598 q 549 374 609 433 q 407 315 490 315 q 266 373 324 315 q 208 516 208 432 "},"(":{"x_min":89,"x_max":552,"ha":467,"o":"m 208 -296 q 118 -28 148 -158 q 89 226 89 101 q 179 618 89 429 q 457 997 269 807 l 552 997 q 291 582 372 783 q 210 153 210 381 q 228 -66 210 45 q 283 -296 246 -178 l 208 -296 "},"◊":{"x_min":4,"x_max":682,"ha":686,"o":"m 343 956 l 81 402 l 343 -157 l 604 402 l 343 956 m 343 1122 l 682 402 l 343 -323 l 4 402 l 343 1122 "},"­":{"x_min":12,"x_max":372,"ha":433,"o":"m 12 313 l 37 423 l 372 423 l 346 313 l 12 313 "},":":{"x_min":37,"x_max":337,"ha":412,"o":"m 155 555 l 186 705 l 337 705 l 305 555 l 155 555 m 37 0 l 68 150 l 219 150 l 186 0 l 37 0 "},"Û":{"x_min":62,"x_max":954,"ha":957,"o":"m 212 999 l 344 999 l 206 347 q 198 300 201 322 q 196 261 196 278 q 250 140 196 183 q 404 97 305 97 q 588 152 522 97 q 680 330 655 208 l 821 999 l 954 999 l 810 323 q 759 163 788 220 q 682 66 730 107 q 554 -3 627 20 q 398 -28 481 -28 q 153 48 245 -28 q 62 251 62 124 q 66 303 62 270 q 81 385 71 335 l 212 999 m 793 1098 l 719 1098 l 629 1247 l 476 1098 l 394 1098 l 575 1335 l 700 1335 l 793 1098 "},"V":{"x_min":61,"x_max":856,"ha":768,"o":"m 229 0 l 61 999 l 191 999 l 322 169 l 719 999 l 856 999 l 368 0 l 229 0 "}," ":{"x_min":0,"x_max":0,"ha":762},"@":{"x_min":72,"x_max":1318,"ha":1389,"o":"m 870 579 l 909 657 l 998 657 l 899 265 q 895 244 897 254 q 894 225 894 234 q 911 178 894 194 q 962 161 929 161 q 1031 179 994 161 q 1103 231 1068 197 q 1188 357 1158 282 q 1219 516 1219 432 q 1089 801 1219 692 q 751 911 960 911 q 584 892 661 911 q 441 833 508 873 q 241 630 312 756 q 170 352 170 504 q 211 143 170 232 q 342 -12 253 54 q 502 -92 409 -64 q 697 -121 594 -121 q 919 -87 811 -121 q 1118 7 1027 -54 l 1155 -47 q 942 -161 1054 -123 q 705 -199 829 -199 q 469 -167 576 -199 q 279 -72 362 -135 q 123 113 175 7 q 72 353 72 219 q 107 566 72 465 q 209 748 142 666 q 447 931 308 869 q 756 994 587 994 q 966 963 867 994 q 1138 877 1066 932 q 1272 720 1226 809 q 1318 528 1318 631 q 1274 314 1318 409 q 1149 154 1231 219 q 1048 98 1103 118 q 935 78 993 78 q 834 105 868 78 q 800 184 800 132 l 800 197 q 712 108 762 137 q 596 80 662 80 q 437 137 492 80 q 383 305 383 195 q 476 573 383 465 q 706 681 570 681 q 805 655 764 681 q 870 579 846 630 m 807 321 l 847 481 q 800 574 835 541 q 712 607 765 607 q 555 518 619 607 q 492 301 492 430 q 524 191 492 230 q 618 153 557 153 q 736 199 683 153 q 807 321 788 246 "},"¾":{"x_min":12,"x_max":1150,"ha":1193,"o":"m 805 197 l 985 197 l 1040 424 l 805 197 m 938 0 l 970 137 l 711 137 l 725 197 l 1074 528 l 1141 528 l 1062 197 l 1150 197 l 1135 137 l 1046 137 l 1014 0 l 938 0 m 249 -28 l 858 971 l 943 971 l 333 -28 l 249 -28 m 14 591 l 95 591 q 92 571 93 581 q 91 553 91 562 q 117 485 91 508 q 197 462 144 462 q 297 495 259 462 q 335 584 335 528 q 305 644 335 623 q 219 665 275 665 l 195 665 l 209 722 l 237 722 q 334 746 300 722 q 369 817 369 771 q 342 876 369 854 q 270 898 315 898 q 187 871 218 898 q 147 790 156 844 l 68 790 q 134 914 80 871 q 273 958 187 958 q 402 920 354 958 q 450 820 450 883 q 424 741 450 774 q 349 690 399 709 q 399 644 383 671 q 415 581 415 618 q 354 450 415 501 q 197 400 293 400 q 60 438 109 400 q 12 548 12 477 q 12 573 12 564 q 14 591 13 582 "},"i":{"x_min":-5,"x_max":328,"ha":321,"o":"m 177 852 l 207 998 l 328 998 l 297 852 l 177 852 m -5 0 l 147 726 l 269 726 l 115 0 l -5 0 "},"≤":{"x_min":178,"x_max":981.359375,"ha":1157,"o":"m 981 110 l 981 16 l 178 16 l 178 110 l 981 110 m 980 718 l 344 508 l 980 301 l 980 200 l 178 467 l 178 550 l 980 818 l 980 718 "},"m":{"x_min":-10,"x_max":1077,"ha":1152,"o":"m -10 0 l 142 726 l 258 726 l 230 604 q 346 703 285 671 q 481 735 407 735 q 599 703 559 735 q 640 605 639 670 q 761 704 700 672 q 889 737 823 737 q 1027 694 977 737 q 1077 579 1077 652 q 1074 545 1077 564 q 1067 502 1072 526 l 958 0 l 830 0 l 944 516 q 948 539 946 528 q 949 558 949 549 q 926 610 949 592 q 857 628 903 628 q 710 564 778 628 q 621 401 642 500 l 534 0 l 409 0 l 520 522 q 524 543 523 533 q 525 562 525 554 q 505 610 525 593 q 446 628 484 628 q 292 567 360 628 q 203 413 224 507 l 112 0 l -10 0 "},"ž":{"x_min":-58,"x_max":624,"ha":619,"o":"m -58 0 l -36 95 l 434 619 l 54 619 l 75 726 l 624 726 l 602 637 l 123 109 l 534 109 l 511 0 l -58 0 m 224 1060 l 297 1060 l 388 910 l 540 1060 l 623 1060 l 442 823 l 318 823 l 224 1060 "},"á":{"x_min":-11,"x_max":645,"ha":733,"o":"m 481 365 q 336 338 426 345 q 218 325 246 331 q 139 282 165 312 q 114 200 114 251 q 146 115 114 146 q 234 84 179 84 q 402 155 339 84 q 481 365 464 227 m 443 82 q 338 4 395 30 q 213 -22 281 -22 q 48 36 107 -22 q -11 200 -11 95 q 62 372 -11 316 q 312 439 136 428 q 321 439 315 439 q 519 549 519 452 q 486 618 519 596 q 381 641 453 641 q 241 614 280 641 q 186 516 202 588 l 65 516 q 162 687 83 630 q 381 745 241 745 q 576 700 508 745 q 645 575 645 656 q 642 549 645 566 q 631 489 639 531 l 565 181 q 559 151 561 165 q 557 121 557 136 q 570 91 557 101 q 607 81 582 81 q 622 82 615 81 q 638 85 630 83 l 619 0 q 585 -6 603 -4 q 542 -8 567 -8 q 468 14 493 -8 q 443 82 443 37 m 414 823 l 332 823 l 489 1060 l 618 1060 l 414 823 "},"×":{"x_min":199,"x_max":968,"ha":1157,"o":"m 583 481 l 901 799 l 968 731 l 649 413 l 968 96 l 901 31 l 583 347 l 265 31 l 199 96 l 517 413 l 199 731 l 265 799 l 583 481 "},"İ":{"x_min":5,"x_max":409,"ha":361,"o":"m 5 0 l 215 999 l 355 999 l 142 0 l 5 0 m 246 1135 l 277 1285 l 409 1285 l 377 1135 l 246 1135 "},"K":{"x_min":5,"x_max":934,"ha":859,"o":"m 5 0 l 219 999 l 349 999 l 243 494 l 765 999 l 934 999 l 501 587 l 802 0 l 663 0 l 407 501 l 204 315 l 137 0 l 5 0 "},"7":{"x_min":104,"x_max":772,"ha":762,"o":"m 122 0 q 264 394 148 194 q 605 830 380 594 l 104 830 l 128 943 l 772 943 l 750 839 q 406 399 524 603 q 263 0 287 194 l 122 0 "},"¨":{"x_min":252,"x_max":629,"ha":694,"o":"m 475 864 l 505 1006 l 629 1006 l 599 864 l 475 864 m 252 864 l 282 1006 l 406 1006 l 376 864 l 252 864 "},"Y":{"x_min":47,"x_max":817,"ha":715,"o":"m 186 0 l 271 413 l 47 999 l 185 999 l 357 536 l 665 999 l 817 999 l 400 393 l 320 0 l 186 0 "},"E":{"x_min":3,"x_max":818,"ha":817,"o":"m 3 0 l 213 999 l 818 999 l 791 876 l 319 876 l 255 574 l 712 574 l 687 456 l 230 456 l 158 122 l 668 122 l 641 0 l 3 0 "},"Ô":{"x_min":54,"x_max":1007,"ha":1065,"o":"m 586 908 q 438 873 508 908 q 316 775 368 839 q 223 601 257 701 q 190 398 190 500 q 264 171 190 253 q 471 89 339 89 q 614 120 546 89 q 732 209 681 151 q 833 389 797 285 q 869 606 869 492 q 792 826 869 745 q 586 908 716 908 m 54 396 q 97 641 54 520 q 220 854 141 761 q 388 981 291 937 q 600 1025 486 1025 q 898 910 789 1025 q 1007 596 1007 796 q 962 349 1007 470 q 836 136 917 229 q 670 14 767 56 q 460 -28 573 -28 q 162 85 271 -28 q 54 396 54 199 m 830 1098 l 756 1098 l 666 1247 l 513 1098 l 431 1098 l 612 1335 l 737 1335 l 830 1098 "},"Ï":{"x_min":5,"x_max":518,"ha":361,"o":"m 5 0 l 215 999 l 355 999 l 142 0 l 5 0 m 364 1139 l 394 1281 l 518 1281 l 488 1139 l 364 1139 m 141 1139 l 171 1281 l 295 1281 l 265 1139 l 141 1139 "},"‹":{"x_min":24,"x_max":310,"ha":339,"o":"m 24 320 l 46 429 l 310 595 l 284 474 l 110 365 l 234 239 l 211 132 l 24 320 "},"±":{"x_min":172,"x_max":984,"ha":1157,"o":"m 984 116 l 984 20 l 172 20 l 172 116 l 984 116 m 626 809 l 626 578 l 984 578 l 984 484 l 626 484 l 626 253 l 530 253 l 530 484 l 172 484 l 172 578 l 530 578 l 530 809 l 626 809 "},"ì":{"x_min":-5,"x_max":331,"ha":321,"o":"m -5 0 l 147 726 l 270 726 l 115 0 l -5 0 m 331 823 l 257 823 l 53 1060 l 189 1060 l 331 823 "},"|":{"x_min":297,"x_max":399,"ha":694,"o":"m 399 1061 l 399 -328 l 297 -328 l 297 1061 l 399 1061 "},"§":{"x_min":24,"x_max":616,"ha":694,"o":"m 396 271 q 465 318 442 292 q 488 377 488 345 q 471 431 488 406 q 415 487 454 457 l 268 598 q 201 552 224 581 q 178 487 178 524 q 193 442 178 463 q 255 383 209 420 l 396 271 m 24 77 l 147 76 q 182 -2 153 24 q 258 -30 210 -30 q 346 0 313 -30 q 380 75 380 28 q 296 193 380 127 l 287 200 l 168 294 q 81 383 106 344 q 56 467 56 422 q 90 571 56 525 q 194 658 124 618 q 163 721 173 688 q 154 792 154 754 q 220 945 154 883 q 386 1008 287 1008 q 556 955 496 1008 q 616 805 616 902 q 615 793 616 801 q 614 783 614 786 l 490 783 q 464 871 490 843 q 382 899 438 899 q 309 873 337 899 q 281 809 281 848 q 302 746 281 775 q 384 670 323 717 l 491 588 q 579 497 552 542 q 606 402 606 453 q 572 288 606 337 q 467 201 538 239 q 496 145 486 176 q 506 78 506 115 q 437 -79 506 -15 q 265 -144 368 -144 q 85 -87 146 -144 q 24 77 24 -31 "},"q":{"x_min":24,"x_max":777,"ha":819,"o":"m 330 91 q 429 115 383 91 q 511 188 475 139 q 573 309 550 239 q 596 444 596 379 q 551 595 596 544 q 416 646 505 646 q 310 619 358 646 q 229 542 263 593 q 174 420 194 488 q 154 283 154 351 q 200 141 154 191 q 330 91 246 91 m 777 726 l 562 -290 l 441 -290 l 519 81 q 417 8 473 32 q 297 -16 362 -16 q 97 64 171 -16 q 24 284 24 145 q 52 461 24 374 q 133 616 80 548 q 251 718 185 683 q 395 753 317 753 q 543 718 483 753 q 637 615 603 684 l 662 726 l 777 726 "},"b":{"x_min":-4,"x_max":753,"ha":819,"o":"m -4 1 l 209 999 l 327 999 l 255 644 q 356 722 299 695 q 478 749 413 749 q 679 669 605 749 q 753 453 753 590 q 723 273 753 363 q 641 112 694 183 q 526 13 594 48 q 379 -21 458 -21 q 230 14 292 -21 q 137 117 169 50 l 111 1 l -4 1 m 443 640 q 344 616 389 640 q 265 547 299 593 q 202 421 225 493 q 179 279 179 349 q 226 136 179 187 q 358 86 273 86 q 546 190 470 86 q 623 448 623 294 q 575 589 623 539 q 443 640 528 640 "},"®":{"x_min":79,"x_max":1079,"ha":1157,"o":"m 571 717 l 484 717 l 484 529 l 574 529 q 684 550 651 529 q 718 619 718 571 q 683 693 718 670 q 571 717 648 717 m 590 786 q 768 746 709 786 q 828 630 828 707 q 794 530 828 570 q 698 478 760 490 l 825 220 l 705 220 l 589 461 l 484 461 l 484 220 l 377 220 l 377 786 l 590 786 m 1014 488 q 982 658 1014 579 q 890 798 950 737 q 748 894 827 861 q 579 927 669 927 q 413 895 491 927 q 276 803 335 863 q 178 658 212 739 q 144 492 144 577 q 176 329 144 407 q 271 188 209 250 q 412 92 332 126 q 575 59 491 59 q 743 91 663 59 q 887 186 822 124 q 981 323 948 246 q 1014 488 1014 401 m 577 993 q 771 955 680 993 q 934 844 863 917 q 1041 682 1004 773 q 1079 493 1079 592 q 1041 300 1079 390 q 933 141 1004 210 q 767 31 859 69 q 577 -7 675 -7 q 387 31 477 -7 q 224 142 296 69 q 116 304 153 214 q 79 493 79 394 q 118 684 79 592 q 230 851 157 777 q 387 957 298 921 q 577 993 475 993 "},"L":{"x_min":5,"x_max":682,"ha":772,"o":"m 5 0 l 215 999 l 348 999 l 163 123 l 682 123 l 655 0 l 5 0 "}," ":{"x_min":0,"x_max":0,"ha":380},"∑":{"x_min":17,"x_max":908,"ha":936,"o":"m 37 999 l 890 999 l 890 868 l 240 868 l 695 381 l 225 -137 l 908 -137 l 908 -267 l 17 -267 l 17 -165 l 508 377 l 37 878 l 37 999 "},"À":{"x_min":-102,"x_max":769,"ha":839,"o":"m 252 399 l 570 399 l 497 861 l 252 399 m -102 0 l 435 999 l 602 999 l 769 0 l 634 0 l 589 282 l 191 282 l 42 0 l -102 0 m 630 1098 l 556 1098 l 352 1335 l 488 1335 l 630 1098 "},"+":{"x_min":172,"x_max":984,"ha":1157,"o":"m 626 828 l 626 461 l 984 461 l 984 367 l 626 367 l 626 0 l 530 0 l 530 367 l 172 367 l 172 461 l 530 461 l 530 828 l 626 828 "},"½":{"x_min":101,"x_max":1160,"ha":1192,"o":"m 716 0 q 736 80 720 45 q 782 141 752 115 q 908 225 816 174 q 924 234 918 232 l 931 238 q 1077 392 1077 320 q 1050 456 1077 432 q 979 481 1024 481 q 889 452 920 481 q 849 364 857 423 l 767 364 q 833 497 779 451 q 978 543 886 543 q 1110 502 1061 543 q 1160 394 1160 461 q 1126 295 1160 337 q 1004 204 1092 252 q 962 180 989 195 q 810 61 832 110 l 1112 61 l 1099 0 l 716 0 m 249 -28 l 858 971 l 943 971 l 333 -28 l 249 -28 m 171 415 l 268 826 q 192 811 235 816 q 101 805 150 805 l 113 856 q 249 883 199 858 q 322 958 299 907 l 378 958 l 247 415 l 171 415 "},"Ë":{"x_min":3,"x_max":818,"ha":817,"o":"m 3 0 l 213 999 l 818 999 l 791 876 l 319 876 l 255 574 l 712 574 l 687 456 l 230 456 l 158 122 l 668 122 l 641 0 l 3 0 m 592 1139 l 622 1281 l 746 1281 l 716 1139 l 592 1139 m 369 1139 l 399 1281 l 523 1281 l 493 1139 l 369 1139 "},"'":{"x_min":61,"x_max":155,"ha":215,"o":"m 155 974 l 155 598 l 61 598 l 61 974 l 155 974 "},"Š":{"x_min":5.59375,"x_max":798,"ha":829,"o":"m 7 310 l 132 310 l 132 291 q 190 142 132 196 q 353 89 249 89 q 517 139 456 89 q 578 275 578 190 q 393 448 578 371 l 393 449 q 173 579 222 521 q 124 736 124 637 q 218 945 124 866 q 469 1025 313 1025 q 712 946 626 1025 q 798 725 798 868 l 798 713 l 668 713 l 668 717 q 616 864 668 814 q 461 914 564 914 q 310 867 366 914 q 255 744 255 821 q 420 584 255 656 q 460 567 446 573 q 664 440 612 500 q 716 290 716 380 q 615 56 716 141 q 339 -29 514 -29 q 96 55 186 -29 q 5 283 5 140 q 6 296 5 287 q 7 310 7 305 m 383 1335 l 456 1335 l 547 1185 l 699 1335 l 782 1335 l 601 1098 l 477 1098 l 383 1335 "},"˛":{"x_min":83,"x_max":305,"ha":694,"o":"m 264 0 q 195 -78 217 -42 q 173 -150 173 -114 q 186 -191 173 -179 q 236 -203 200 -203 l 305 -203 l 284 -300 l 235 -300 q 120 -271 158 -300 q 83 -185 83 -242 q 112 -97 83 -141 q 208 0 141 -53 l 264 0 "},"ð":{"x_min":22,"x_max":719,"ha":798,"o":"m 555 668 q 502 757 533 717 q 434 828 472 798 l 264 751 l 235 811 l 373 876 q 301 913 337 895 q 227 947 264 931 l 263 1022 q 381 977 327 1002 q 484 921 435 952 l 672 1008 l 700 947 l 546 873 q 676 684 634 788 q 719 450 719 579 q 609 110 719 239 q 321 -18 499 -18 q 99 58 177 -18 q 22 276 22 135 q 126 591 22 465 q 385 717 230 717 q 478 704 435 717 q 555 668 521 691 m 409 619 q 304 593 351 619 q 221 519 256 568 q 168 403 188 471 q 148 269 148 335 q 193 134 148 180 q 324 88 238 88 q 516 186 442 88 q 591 438 591 284 q 543 571 591 524 q 409 619 496 619 "},"ş":{"x_min":-14,"x_max":612,"ha":684,"o":"m -12 254 l 101 254 q 101 243 101 249 q 101 227 101 237 q 149 113 101 152 q 292 75 198 75 q 401 105 360 75 q 442 185 442 135 q 325 302 442 247 l 317 306 q 285 321 306 311 q 79 536 79 416 q 151 690 79 632 q 345 749 224 749 q 541 686 470 749 q 612 511 612 623 l 612 493 l 499 493 l 499 497 q 460 607 499 569 q 347 646 421 646 q 237 620 276 646 q 198 547 198 594 q 321 438 198 493 q 352 425 341 429 q 525 319 485 365 q 565 205 565 274 q 487 39 565 103 q 284 -24 410 -24 l 263 -24 l 247 -69 l 261 -69 q 370 -97 333 -69 q 408 -181 408 -126 q 364 -285 408 -249 q 238 -321 320 -321 q 157 -312 204 -321 q 49 -286 110 -303 l 74 -219 q 164 -243 131 -236 q 224 -250 198 -250 q 289 -233 267 -250 q 311 -183 311 -216 q 284 -141 311 -154 q 191 -129 258 -129 l 174 -129 l 210 -24 q 42 60 99 -2 q -14 226 -14 123 q -13 243 -14 237 q -12 254 -13 249 "},"ı":{"x_min":-5,"x_max":270,"ha":321,"o":"m -5 0 l 147 726 l 270 726 l 115 0 l -5 0 "},"Ć":{"x_min":60,"x_max":950,"ha":982,"o":"m 772 355 l 900 355 q 738 72 861 176 q 445 -31 616 -31 q 161 82 263 -31 q 60 399 60 196 q 94 625 60 517 q 193 821 128 733 q 362 969 264 919 q 580 1019 460 1019 q 844 926 748 1019 q 950 665 940 834 l 816 665 q 745 837 811 776 q 566 898 680 898 q 412 859 480 898 q 294 744 344 820 q 220 580 245 667 q 195 400 195 493 q 263 165 195 246 q 462 84 331 84 q 647 152 568 84 q 772 355 725 220 m 594 1098 l 512 1098 l 669 1335 l 798 1335 l 594 1098 "},"ä":{"x_min":-11,"x_max":645,"ha":733,"o":"m 481 365 q 336 338 426 345 q 218 325 246 331 q 139 282 165 312 q 114 200 114 251 q 146 115 114 146 q 234 84 179 84 q 402 155 339 84 q 481 365 464 227 m 443 82 q 338 4 395 30 q 213 -22 281 -22 q 48 36 107 -22 q -11 200 -11 95 q 62 372 -11 316 q 312 439 136 428 q 321 439 315 439 q 519 549 519 452 q 486 618 519 596 q 381 641 453 641 q 241 614 280 641 q 186 516 202 588 l 65 516 q 162 687 83 630 q 381 745 241 745 q 576 700 508 745 q 645 575 645 656 q 642 549 645 566 q 631 489 639 531 l 565 181 q 559 151 561 165 q 557 121 557 136 q 570 91 557 101 q 607 81 582 81 q 622 82 615 81 q 638 85 630 83 l 619 0 q 585 -6 603 -4 q 542 -8 567 -8 q 468 14 493 -8 q 443 82 443 37 m 482 864 l 512 1006 l 636 1006 l 606 864 l 482 864 m 259 864 l 289 1006 l 413 1006 l 383 864 l 259 864 "},"¹":{"x_min":104,"x_max":396,"ha":503,"o":"m 178 378 l 280 818 q 202 803 245 808 q 104 797 158 797 l 117 852 q 260 880 207 854 q 337 960 313 906 l 396 960 l 259 378 l 178 378 "},"£":{"x_min":27,"x_max":726,"ha":762,"o":"m 50 -16 l 27 102 q 135 222 99 154 q 172 373 172 290 q 170 410 172 392 q 166 443 169 427 l 37 443 l 56 513 l 155 513 q 140 590 145 553 q 136 656 136 626 q 226 902 136 808 q 463 997 317 997 q 654 933 582 997 q 726 768 726 870 q 723 720 726 745 q 717 668 721 695 l 592 668 q 598 714 596 695 q 601 747 601 734 q 565 852 601 816 q 460 888 529 888 q 317 827 369 888 q 266 660 266 767 q 269 594 266 630 q 281 513 273 558 l 524 513 l 508 443 l 288 443 q 288 440 288 442 q 291 403 291 415 q 252 247 291 322 q 136 98 214 172 q 216 123 180 115 q 283 132 253 132 q 408 112 327 132 q 524 92 489 92 q 589 105 556 92 q 658 145 622 118 l 618 0 q 563 -16 591 -10 q 508 -22 535 -22 q 363 5 462 -22 q 210 32 263 32 q 135 19 176 32 q 50 -16 94 6 "},"W":{"x_min":93,"x_max":1217,"ha":1154,"o":"m 166 0 l 93 999 l 216 999 l 270 230 l 578 999 l 710 999 l 786 221 l 1089 999 l 1217 999 l 826 0 l 693 0 l 613 794 l 299 0 l 166 0 "},"Ğ":{"x_min":61,"x_max":975,"ha":1046,"o":"m 760 0 l 769 107 q 628 5 706 39 q 455 -28 550 -28 q 164 85 268 -28 q 61 403 61 199 q 101 652 61 534 q 218 858 142 769 q 382 980 288 938 q 585 1023 475 1023 q 864 933 764 1023 q 975 679 965 844 l 841 679 q 766 846 833 787 q 581 905 698 905 q 426 868 494 905 q 302 755 357 831 q 224 591 252 686 q 196 398 196 497 q 271 169 196 250 q 484 89 346 89 q 694 172 607 89 q 820 408 782 255 l 506 408 l 528 517 l 972 517 l 863 0 l 760 0 m 496 1312 l 566 1312 l 566 1299 q 588 1235 566 1255 q 662 1215 611 1215 q 759 1238 721 1215 q 818 1312 797 1262 l 892 1312 q 805 1169 864 1217 q 656 1121 746 1121 q 535 1160 576 1121 q 495 1279 495 1200 q 495 1298 495 1291 q 496 1312 495 1305 "},"v":{"x_min":32,"x_max":672,"ha":642,"o":"m 145 0 l 32 726 l 149 726 l 234 128 l 539 726 l 672 726 l 280 0 l 145 0 "},">":{"x_min":179,"x_max":978,"ha":1157,"o":"m 978 458 l 978 371 l 179 43 l 179 147 l 837 413 l 179 682 l 179 786 l 978 458 "},"û":{"x_min":22,"x_max":723,"ha":766,"o":"m 723 726 l 570 0 l 459 0 l 481 109 q 355 18 421 48 q 215 -11 290 -11 q 70 27 119 -11 q 22 144 22 66 q 24 187 22 165 q 32 234 27 210 l 137 726 l 260 726 l 158 253 l 158 249 q 148 173 148 198 q 177 112 148 134 q 257 90 206 90 q 429 159 361 90 q 525 362 497 228 l 602 726 l 723 726 m 639 823 l 565 823 l 475 972 l 322 823 l 240 823 l 421 1060 l 546 1060 l 639 823 "},"Ð":{"x_min":0,"x_max":929,"ha":997,"o":"m 245 488 l 165 113 l 356 113 q 557 139 489 113 q 673 228 625 165 q 757 392 729 300 q 786 590 786 483 q 717 816 786 748 q 488 885 649 885 l 330 885 l 265 574 l 526 574 l 508 488 l 245 488 m 8 0 l 113 488 l 0 488 l 18 574 l 133 574 l 223 999 l 508 999 q 828 899 728 999 q 929 584 929 800 q 895 349 929 457 q 800 164 862 241 q 737 100 772 129 q 661 48 703 71 q 553 11 612 22 q 381 0 494 0 l 8 0 "},"r":{"x_min":-5,"x_max":494,"ha":453,"o":"m -5 0 l 147 726 l 263 726 l 233 592 q 340 711 294 678 q 438 745 386 745 q 464 743 450 745 q 494 739 478 742 l 463 602 q 460 602 462 602 q 423 605 435 605 q 275 541 333 605 q 190 349 218 478 l 115 0 l -5 0 "},"Č":{"x_min":60,"x_max":950,"ha":982,"o":"m 772 355 l 900 355 q 738 72 861 176 q 445 -31 616 -31 q 161 82 263 -31 q 60 399 60 196 q 94 625 60 517 q 193 821 128 733 q 362 969 264 919 q 580 1019 460 1019 q 844 926 748 1019 q 950 665 940 834 l 816 665 q 745 837 811 776 q 566 898 680 898 q 412 859 480 898 q 294 744 344 820 q 220 580 245 667 q 195 400 195 493 q 263 165 195 246 q 462 84 331 84 q 647 152 568 84 q 772 355 725 220 m 448 1335 l 521 1335 l 612 1185 l 764 1335 l 847 1335 l 666 1098 l 542 1098 l 448 1335 "},"x":{"x_min":-100,"x_max":647,"ha":614,"o":"m -100 0 l 213 377 l 37 726 l 173 726 l 295 467 l 503 726 l 647 726 l 349 365 l 527 0 l 394 0 l 266 269 l 45 0 l -100 0 "},"è":{"x_min":24,"x_max":699,"ha":770,"o":"m 169 428 l 567 428 q 569 440 569 434 q 570 459 570 446 q 525 594 570 545 q 404 643 481 643 q 255 587 316 643 q 169 428 193 531 m 659 237 q 542 45 633 114 q 319 -24 452 -24 q 100 57 176 -24 q 24 292 24 139 q 130 622 24 494 q 404 750 237 750 q 619 670 539 750 q 699 455 699 590 q 696 399 699 430 q 688 329 693 368 l 149 329 q 149 325 149 327 q 147 283 147 295 q 195 133 147 185 q 336 82 244 82 q 463 123 409 82 q 535 237 516 165 l 659 237 m 518 823 l 444 823 l 240 1060 l 376 1060 l 518 823 "},"Ø":{"x_min":46.53125,"x_max":1009.0625,"ha":1065,"o":"m 264 163 q 351 106 300 124 q 470 88 401 88 q 616 118 549 88 q 736 207 684 149 q 834 380 798 277 q 870 591 870 483 q 858 689 870 642 q 824 779 847 735 l 264 163 m 788 827 q 696 884 747 865 q 580 903 645 903 q 435 870 502 903 q 317 772 369 837 q 223 593 256 697 q 190 378 190 490 q 199 292 190 332 q 228 212 208 251 l 788 827 m 93 -26 l 46 13 l 136 114 q 72 241 93 174 q 52 389 52 308 q 96 639 52 517 q 218 852 140 761 q 386 980 289 936 q 597 1025 484 1025 q 749 1000 681 1025 q 875 926 817 976 l 961 1020 l 1009 979 l 920 880 q 984 750 963 821 q 1005 590 1005 679 q 962 343 1005 460 q 837 135 919 226 q 668 15 766 56 q 454 -26 571 -26 q 298 -3 365 -26 q 178 66 231 19 l 93 -26 "},"÷":{"x_min":172,"x_max":986,"ha":1157,"o":"m 579 249 q 638 223 613 249 q 664 164 664 198 q 639 103 664 128 q 579 79 614 79 q 518 103 542 79 q 494 164 494 127 q 519 223 494 198 q 579 249 544 249 m 986 461 l 986 367 l 172 367 l 172 461 l 986 461 m 579 749 q 638 723 613 749 q 664 663 664 698 q 639 603 664 628 q 579 579 614 579 q 518 603 543 579 q 494 663 494 628 q 519 723 494 698 q 579 749 544 749 "},"h":{"x_min":-4,"x_max":700,"ha":774,"o":"m -4 0 l 208 999 l 329 999 l 250 625 q 369 710 306 682 q 505 739 433 739 q 651 699 602 739 q 700 580 700 659 q 697 538 700 560 q 689 491 694 515 l 584 0 l 461 0 l 562 473 q 571 521 568 500 q 574 559 574 541 q 544 614 574 593 q 464 636 514 636 q 292 566 360 636 q 196 364 223 497 l 119 0 l -4 0 "},".":{"x_min":21,"x_max":203,"ha":380,"o":"m 21 0 l 52 150 l 203 150 l 172 0 l 21 0 "},"f":{"x_min":10,"x_max":446,"ha":370,"o":"m 10 0 l 136 626 l 36 626 l 56 726 l 155 726 l 179 840 q 238 965 196 928 q 363 1003 281 1003 q 399 1001 379 1003 q 446 995 419 999 l 425 886 q 398 890 412 889 q 368 892 384 892 q 296 810 314 892 q 293 798 294 802 l 277 726 l 400 726 l 380 626 l 256 626 l 129 0 l 10 0 "},"“":{"x_min":154,"x_max":583,"ha":574,"o":"m 583 1021 l 570 958 q 514 919 534 947 q 484 845 493 892 l 551 845 l 520 703 l 379 703 l 410 845 q 472 964 427 918 q 583 1021 517 1010 m 358 1021 l 345 958 q 289 919 309 947 q 259 845 268 892 l 326 845 l 295 703 l 154 703 l 185 845 q 247 964 202 918 q 358 1021 292 1010 "},"A":{"x_min":-102,"x_max":769,"ha":839,"o":"m 252 399 l 570 399 l 497 861 l 252 399 m -102 0 l 435 999 l 602 999 l 769 0 l 634 0 l 589 282 l 191 282 l 42 0 l -102 0 "},"O":{"x_min":54,"x_max":1007,"ha":1065,"o":"m 586 908 q 438 873 508 908 q 316 775 368 839 q 223 601 257 701 q 190 398 190 500 q 264 171 190 253 q 471 89 339 89 q 614 120 546 89 q 732 209 681 151 q 833 389 797 285 q 869 606 869 492 q 792 826 869 745 q 586 908 716 908 m 54 396 q 97 641 54 520 q 220 854 141 761 q 388 981 291 937 q 600 1025 486 1025 q 898 910 789 1025 q 1007 596 1007 796 q 962 349 1007 470 q 836 136 917 229 q 670 14 767 56 q 460 -28 573 -28 q 162 85 271 -28 q 54 396 54 199 "},"π":{"x_min":-21,"x_max":810,"ha":818,"o":"m 786 619 l 662 619 l 591 288 q 576 207 581 238 q 571 161 571 176 q 586 105 571 122 q 640 89 602 89 q 667 90 651 89 q 708 95 683 92 l 687 0 q 648 -8 667 -5 q 612 -11 630 -11 q 491 23 532 -11 q 450 126 450 58 q 457 206 450 157 q 487 364 464 254 l 541 619 l 320 619 l 189 0 l 66 0 l 198 619 l 170 619 q 113 597 134 619 q 87 528 93 575 l -21 528 q 46 683 -2 641 q 206 726 94 726 l 810 726 l 786 619 "},"‘":{"x_min":154,"x_max":358,"ha":349,"o":"m 358 1021 l 345 958 q 289 919 309 947 q 259 845 268 892 l 326 845 l 295 703 l 154 703 l 185 845 q 247 964 202 918 q 358 1021 292 1010 "},"3":{"x_min":20,"x_max":714,"ha":762,"o":"m 24 315 l 151 315 q 147 282 148 299 q 146 248 146 266 q 188 125 146 167 q 312 83 230 83 q 471 142 412 83 q 530 302 530 201 q 482 409 530 372 q 347 447 435 447 q 324 446 332 447 q 311 446 317 446 l 333 548 q 350 547 341 547 q 376 547 359 547 q 532 591 478 547 q 587 717 587 635 q 544 823 587 784 q 429 862 502 862 q 297 814 346 862 q 235 671 249 766 l 109 671 q 212 893 128 815 q 434 971 297 971 q 638 903 562 971 q 714 723 714 836 q 673 582 714 642 q 555 490 633 523 q 633 409 607 457 q 660 296 660 361 q 563 62 660 153 q 312 -28 466 -28 q 96 42 173 -28 q 20 238 20 112 q 21 275 20 256 q 24 315 22 294 "},"9":{"x_min":23,"x_max":715,"ha":762,"o":"m 415 870 q 262 792 323 870 q 201 596 201 714 q 245 458 201 507 q 369 409 289 409 q 526 481 464 409 q 588 670 588 554 q 542 817 588 764 q 415 870 497 870 m 145 238 q 177 119 145 157 q 278 81 210 81 q 446 159 377 81 q 556 395 515 237 q 451 327 507 349 q 329 305 395 305 q 140 380 210 305 q 71 582 71 455 q 169 862 71 755 q 427 970 267 970 q 639 879 563 970 q 715 624 715 788 q 674 349 715 484 q 567 122 634 213 q 436 9 513 48 q 268 -29 360 -29 q 86 36 149 -29 q 23 223 23 101 l 23 238 l 145 238 "},"l":{"x_min":0,"x_max":334,"ha":321,"o":"m 0 0 l 212 999 l 334 999 l 122 0 l 0 0 "},"":{"x_min":8,"x_max":679,"ha":675,"o":"m 345 0 l 499 726 l 620 726 l 466 0 l 345 0 m 527 852 l 558 999 l 679 999 l 648 852 l 527 852 m 8 0 l 136 626 l 35 626 l 55 726 l 156 726 l 178 839 q 239 965 197 928 q 364 1003 282 1003 q 399 1001 379 1003 q 445 995 418 999 l 425 886 q 398 890 412 889 q 368 892 383 892 q 318 874 334 892 q 290 798 301 857 l 276 726 l 400 726 l 380 626 l 255 626 l 127 0 l 8 0 "},"4":{"x_min":-3,"x_max":694,"ha":762,"o":"m 147 348 l 433 348 l 520 757 l 147 348 m 357 0 l 409 242 l -3 242 l 22 348 l 574 943 l 681 943 l 555 348 l 694 348 l 671 242 l 531 242 l 480 0 l 357 0 "},"Ü":{"x_min":62,"x_max":954,"ha":957,"o":"m 212 999 l 344 999 l 206 347 q 198 300 201 322 q 196 261 196 278 q 250 140 196 183 q 404 97 305 97 q 588 152 522 97 q 680 330 655 208 l 821 999 l 954 999 l 810 323 q 759 163 788 220 q 682 66 730 107 q 554 -3 627 20 q 398 -28 481 -28 q 153 48 245 -28 q 62 251 62 124 q 66 303 62 270 q 81 385 71 335 l 212 999 m 654 1139 l 684 1281 l 808 1281 l 778 1139 l 654 1139 m 431 1139 l 461 1281 l 585 1281 l 555 1139 l 431 1139 "},"à":{"x_min":-11,"x_max":645,"ha":733,"o":"m 481 365 q 336 338 426 345 q 218 325 246 331 q 139 282 165 312 q 114 200 114 251 q 146 115 114 146 q 234 84 179 84 q 402 155 339 84 q 481 365 464 227 m 443 82 q 338 4 395 30 q 213 -22 281 -22 q 48 36 107 -22 q -11 200 -11 95 q 62 372 -11 316 q 312 439 136 428 q 321 439 315 439 q 519 549 519 452 q 486 618 519 596 q 381 641 453 641 q 241 614 280 641 q 186 516 202 588 l 65 516 q 162 687 83 630 q 381 745 241 745 q 576 700 508 745 q 645 575 645 656 q 642 549 645 566 q 631 489 639 531 l 565 181 q 559 151 561 165 q 557 121 557 136 q 570 91 557 101 q 607 81 582 81 q 622 82 615 81 q 638 85 630 83 l 619 0 q 585 -6 603 -4 q 542 -8 567 -8 q 468 14 493 -8 q 443 82 443 37 m 524 823 l 450 823 l 246 1060 l 382 1060 l 524 823 "},"ó":{"x_min":21,"x_max":721,"ha":798,"o":"m 408 643 q 304 617 350 643 q 224 540 258 592 q 169 417 189 488 q 149 278 149 346 q 194 135 149 185 q 324 86 240 86 q 516 189 442 86 q 591 455 591 292 q 544 595 591 547 q 408 643 497 643 m 21 287 q 133 620 21 490 q 421 750 245 750 q 640 667 560 750 q 721 441 721 584 q 608 109 721 239 q 320 -20 496 -20 q 99 60 178 -20 q 21 287 21 141 m 418 823 l 336 823 l 493 1060 l 622 1060 l 418 823 "}}}
